<svg xmlns="http://www.w3.org/2000/svg" data-name="Layer 1" viewBox="0 0 100 125" x="0px" y="0px"><path d="M88.52376,63.69342c-.23723-1.0753-1.06523-1.78863-1.51064-2.75694a9.92626,9.92626,0,0,1-.56286-1.95217c-.14631-.64778-.26887-1.30057-.39152-1.95313-.52682-2.80248-1.083-5.594-1.50543-8.41533q-.65049-4.34466-1.0242-8.72474a80.60122,80.60122,0,0,1-.33068-8.24154c.04534-2.70369.18873-5.40537.18651-8.10992-.00406-4.9421-.43615-10.38262-3.31439-14.5818a11.227,11.227,0,0,0-5.24236-4.21478,21.1387,21.1387,0,0,0-7.266-1.078c-5.7909-.09162-11.5871-.04488-17.37869-.06388L45.84428,3.587a.27369.27369,0,0,0,0,.547q8.6435.02835,17.287.05666a70.94392,70.94392,0,0,1,7.81725.21295A12.202,12.202,0,0,1,77.5601,6.96031c3.76338,3.18719,4.87281,8.43576,5.17543,13.12753.27941,4.33151-.09829,8.66635-.09843,12.99976a20.973,20.973,0,0,0-2.34939-1.80031c-1.36064-.933-2.77123-1.79366-4.20241-2.61356A64.98381,64.98381,0,0,0,66.13985,23.921a20.69541,20.69541,0,0,0-4.19825-1.14371c-1.16683-.16267-2.70367-.18905-3.56681.77443-.86885.96982-.036,2.16966.87162,2.71547.61243.36825,1.27478.66538,1.9114.98912q1.0307.52407,2.06139,1.04822L71.586,32.55922c.60828.30932,1.23813.59439,1.82959.9351a1.10836,1.10836,0,0,1,.65307,1.36428c-.46452,1.4382-2.36363,1.14972-3.51125.959a24.93416,24.93416,0,0,1-7.854-3.08228c-.609-.33676-1.21326-.682-1.81708-1.028a.27588.27588,0,0,0-.37425.37422,9.08477,9.08477,0,0,0,4.60989,4.17171c-.33928.01669-.67857.03392-1.018.04093a7.27432,7.27432,0,0,1-2.91374-.49128,3.62594,3.62594,0,0,0-2.54941-.36949.27748.27748,0,0,0-.06534.4999,21.09583,21.09583,0,0,0,2.149,1.28422,4.33625,4.33625,0,0,1-1.45131.33252c-.31244-.0027-1.81341-.131-1.474.2202a.76705.76705,0,0,0,.28563.1384q2.40033.8,4.80069,1.6a5.558,5.558,0,0,0,1.2869.31562c.32017.02578.62416-.00754.94643.0352a8.14257,8.14257,0,0,1,1.14338.3199,4.24749,4.24749,0,0,0,1.77421.12711,2.89513,2.89513,0,0,1,.46555-.06324c.34227-.00381.68629.20361.47948.357.85717-.63563,4.33885-.58327,2.66442-.88558-.12825-.02313-.24918-.04561-.37433-.06848.20131-.00577.40264-.01051.60386-.02213a.2762.2762,0,0,0,.138-.50969,18.59636,18.59636,0,0,0-4.11524-2.22068c.42469.068.84609.15853,1.26342.26782,1.7735.46434,3.45394,1.21459,5.20853,1.7388a20.429,20.429,0,0,0,4.30911.7537,11.97226,11.97226,0,0,0,2.07317-.13132,5.0275,5.0275,0,0,0,2.1341-.681,136.593,136.593,0,0,0,1.77286,13.78246c.24533,1.37463.52858,2.74138.78887,4.11307a35.42309,35.42309,0,0,0,.84511,3.809,5.14616,5.14616,0,0,0,.73995,1.4806,6.18859,6.18859,0,0,1,.83966,1.3956,1.51631,1.51631,0,0,1-.31675,1.83687,3.04966,3.04966,0,0,1-1.94545.4396,8.1242,8.1242,0,0,1-2.59859-.72374A68.853,68.853,0,0,1,75.59113,61.534c-1.11757-.60084-2.1411-1.31917-3.20305-2.00936a11.63726,11.63726,0,0,0-1.59843-.90014,8.056,8.056,0,0,0-1.0409-.4368c-.80142-.2243-.93573.98271-.81555,1.508A2.81955,2.81955,0,0,0,71.164,61.65561c1.17333.27523,2.38966.0789,3.568.29766a2.34108,2.34108,0,0,1,2.15659,1.99607,7.29357,7.29357,0,0,1-.99815,3.05357,5.55364,5.55364,0,0,0-.41341,1.49276,63.38557,63.38557,0,0,0-6.39081.283c-1.66674.15923-3.325.39886-4.98809.58618a3.69037,3.69037,0,0,0-1.65181.42561c-.46661.319-.38341.90531-.24684,1.38044.16689.5807.45674,1.11132.66646,1.6752.36548.98277.70424,1.9754,1.07284,2.95724q1.25643,3.3467,2.68005,6.627c.13953.32221.611.044.47235-.27609q-1.20756-2.78832-2.295-5.62641c-.59862-1.56321-1.11829-3.15824-1.7727-4.69841a6.55787,6.55787,0,0,1-.318-.88134c-.01255-.04742-.02845-.10418-.043-.16451a40.76895,40.76895,0,0,1,4.32865,2.60372,16.15819,16.15819,0,0,1,4.08848,3.79507c.951,1.36121.2703,2.82572-.82458,3.846a4.82477,4.82477,0,0,1-1.23446.87577,20.21064,20.21064,0,0,1-2.01079.669,5.26119,5.26119,0,0,0-2.95848,2.6332A10.79766,10.79766,0,0,0,62.646,91.01791a10.7647,10.7647,0,0,1-.18506,3.956c-.50324,1.46622-1.991,1.67694-3.36424,1.53009a10.916,10.916,0,0,1-5.202-2.29443c-1.64624-1.20635-3.18771-2.54525-4.85076-3.7315A80.62128,80.62128,0,0,0,37.581,83.78045c-4.0288-1.96926-8.16935-3.69848-12.32626-5.37628-1.96424-.7928-3.95157-1.53911-5.89335-2.386A20.56961,20.56961,0,0,1,14.74491,73.408a8.59507,8.59507,0,0,1-3.03766-4.25885,10.484,10.484,0,0,1,.49683-6.38954c.33034-.9317.693-1.8547,1.03847-2.78112a16.72731,16.72731,0,0,1,1.24428-2.7529c1.03236-1.73019,2.67809-2.9949,4.06738-4.42.89134-.91429,1.72953-1.89253,2.5307-2.89731a10.125,10.125,0,0,0,3.25041,2.407c2.86341,1.31673,6.848,1.00478,7.96546-2.41784.61431-1.88161.38114-4.04717.2866-5.98788-.11361-2.33256-.32334-4.65905-.54324-6.9836a109.01072,109.01072,0,0,1-.76458-13.83846c.12807-3.88863.52045-8.28414,2.81038-11.577A8.85577,8.85577,0,0,1,38.731,8.16061a29.468,29.468,0,0,1,6.01564-1.01413L58.95239,5.645l6.96539-.73623c.34653-.03663.35029-.58408,0-.54705q-7.1487.75556-14.29739,1.51119-3.52853.373-7.05705.74591a30.25774,30.25774,0,0,0-5.83373.96869,9.49953,9.49953,0,0,0-4.57277,2.93757,12.92006,12.92006,0,0,0-2.357,4.69158A39.52209,39.52209,0,0,0,30.775,27.89833c.20833,4.66356.81691,9.29664,1.14214,13.95165a38.21907,38.21907,0,0,1,.14409,6.48764,4.25072,4.25072,0,0,1-2.99916,4.00072c-2.81047.75994-5.71946-.7389-7.62668-2.8694q.53517-.687,1.048-1.38558A31.77014,31.77014,0,0,0,25.703,42.70958a7.90672,7.90672,0,0,0,1.00208-4.7087A2.67692,2.67692,0,0,0,23.461,35.85159a6.05993,6.05993,0,0,0-3.82117,3.17731,9.12554,9.12554,0,0,0-1.12076,5.09024,9.72424,9.72424,0,0,0,2.20639,5.37505,36.99,36.99,0,0,1-2.77536,3.14445,23.29843,23.29843,0,0,0-3.97272,4.373,33.33165,33.33165,0,0,0-2.2167,5.36967,11.86683,11.86683,0,0,0-.782,6.02814A8.41133,8.41133,0,0,0,13.387,72.93185c2.55631,2.55992,6.16706,3.77351,9.45036,5.08741,4.19964,1.6806,8.3954,3.37838,12.49557,5.292A89.04338,89.04338,0,0,1,47.093,89.79614c1.78562,1.18972,3.4785,2.48889,5.15385,3.82726a17.81955,17.81955,0,0,0,4.51308,2.85731c1.42673.55913,3.35247.966,4.81137.29192a3.16629,3.16629,0,0,0,1.63715-2.712c.17755-1.52549-.133-3.05558.02379-4.58093a9.26661,9.26661,0,0,1,2.3745-5.4869c.97427-.95807,2.39771-1.049,3.59917-1.57556a5.55548,5.55548,0,0,0,2.44066-2.23981,3.147,3.147,0,0,0,.44953-1.81964,3.71544,3.71544,0,0,0-.96524-1.992,18.22406,18.22406,0,0,0-3.98615-3.53591l-.035-.02317c.5.20761,1.00486.40367,1.51795.58007,1.8058.6208,4.03826,1.22528,5.81608.22454a3.50984,3.50984,0,0,0,1.70462-2.043,3.46753,3.46753,0,0,0-.05152-1.67016,4.1645,4.1645,0,0,1,.02025-1.87681c.39813-1.56127,1.87014-3.42635,1.1078-5.0076.99582.49092,2.00637.95146,3.01579,1.39554,1.23877.545,2.49243,1.07352,3.767,1.52982a5.41006,5.41006,0,0,0,2.16923.30137,3.025,3.025,0,0,0,1.867-.6788A1.90887,1.90887,0,0,0,88.52376,63.69342ZM65.68566,38.50208a21.02168,21.02168,0,0,1-6.21046-2.63416,6.15619,6.15619,0,0,1,1.78955.54858,6.93914,6.93914,0,0,0,2.46477.428c.83276.00511,1.66343-.07365,2.49589-.07813A34.72092,34.72092,0,0,1,71.05827,39.107a20.95744,20.95744,0,0,1-4.90309-.49586C65.99306,38.5741,65.83741,38.53781,65.68566,38.50208Zm14.96975.48294a12.84542,12.84542,0,0,1-1.82976.13156,18.61175,18.61175,0,0,1-4.24838-.72561c-1.73634-.51316-3.39818-1.25176-5.14744-1.72435a12.37685,12.37685,0,0,0-2.62614-.43974c-.15334-.00741-.30656-.00651-.45981-.00708-.19555-.08761-.39051-.17629-.58388-.26784a10.44616,10.44616,0,0,1-4.26636-3.268,34.71912,34.71912,0,0,0,6.68155,3.12165,13.31274,13.31274,0,0,0,3.967.71269,2.32112,2.32112,0,0,0,2.51535-1.78175c.19757-1.26451-1.02181-1.74778-1.94655-2.218L68.58816,30.422q-4.18341-2.12736-8.36683-4.25471a3.19588,3.19588,0,0,1-1.51617-1.144,1.00842,1.00842,0,0,1,.56134-1.45042,3.4186,3.4186,0,0,1,1.58051-.33743,13.07281,13.07281,0,0,1,3.81108.7562,55.707,55.707,0,0,1,9.8614,4.43127c1.51456.83109,3.00605,1.70712,4.456,2.64682A27.54274,27.54274,0,0,1,82.1154,33.3474c.16462.14338.32528.29119.479.44615a.25818.25818,0,0,0,.04621.03088c.00735.691.0252,1.382.059,2.07293q.05685,1.1621.13955,2.32385A4.4781,4.4781,0,0,1,80.65541,38.985ZM20.221,47.79925a8.51491,8.51491,0,0,1,1.25123-10.26388c1.223-1.15443,3.717-1.96933,4.55165.07122.65707,1.60635-.17982,3.52519-.86145,4.97294a32.11373,32.11373,0,0,1-3.1991,5.29268q-.43368.591-.886,1.17483A9.72907,9.72907,0,0,1,20.221,47.79925ZM74.5,72.92978a3.74421,3.74421,0,0,1-2.47024.64812A18.35162,18.35162,0,0,1,65.451,71.472c-.88541-.41663-1.76162-.85239-2.64515-1.27293a1.84118,1.84118,0,0,1,.42571-.14026,6.75662,6.75662,0,0,1,.94784-.15583c1.50583-.16107,3.00338-.38451,4.51045-.53813a63.32526,63.32526,0,0,1,6.76676-.32191,7.31354,7.31354,0,0,0,.1633,1.24492A2.52826,2.52826,0,0,1,74.5,72.92978Zm-.98227-11.63043c-1.13824-.03436-2.58072.06417-3.4771-.78328a1.61277,1.61277,0,0,1-.55394-1.54261.81379.81379,0,0,1,.0689-.23362l.02232-.03419a1.16257,1.16257,0,0,1,.33593.141,15.27764,15.27764,0,0,1,1.53117.7356c.56019.32871,1.0953.69793,1.63246,1.06244.35226.239.71245.46675,1.0759.68965C73.94049,61.31624,73.72763,61.30566,73.51775,61.29935Z"/><text x="0" y="115" fill="#000000" font-size="5px" font-weight="bold" font-family="'Helvetica Neue', Helvetica, Arial-Unicode, Arial, Sans-serif">Created by Kristina Margaryan</text><text x="0" y="120" fill="#000000" font-size="5px" font-weight="bold" font-family="'Helvetica Neue', Helvetica, Arial-Unicode, Arial, Sans-serif">from the Noun Project</text></svg>