<svg xmlns="http://www.w3.org/2000/svg" viewBox="0 0 500 500"><g id="freepik--Floor--inject-159"><path id="freepik--floor--inject-159" d="M97.21,266.8c-85.48,49.35-85.48,129.37,0,178.73s224.08,49.35,309.57,0,85.48-129.38,0-178.73S182.7,217.44,97.21,266.8Z" style="fill:#fafafa"></path></g><g id="freepik--Window--inject-159"><g id="freepik--window--inject-159"><g id="freepik--window--inject-159"><g id="freepik--Frame--inject-159"><polygon points="47.48 249.44 50.23 251.08 141.05 198.68 138.3 197.04 47.48 249.44" style="fill:#fafafa"></polygon><polygon points="138.3 197.04 50.23 247.85 50.23 108.03 138.3 57.25 138.3 197.04" style="fill:#fff"></polygon><path d="M146.24,46.64,45,105v155l101.2-58.39Zm-5.19,152-90.82,52.4V108l90.82-52.4Z" style="fill:#f0f0f0"></path><polygon points="141.05 198.68 138.3 197.04 138.3 57.25 141.05 55.63 141.05 198.68" style="fill:#e0e0e0"></polygon><polygon points="50.23 203.6 50.23 206.83 141.05 154.43 138.3 152.79 50.23 203.6" style="fill:#fafafa"></polygon><polygon points="50.23 143.08 50.23 146.31 141.05 93.91 138.3 92.27 50.23 143.08" style="fill:#fafafa"></polygon><polygon points="146.24 46.64 143.45 45.04 42.25 103.44 45.04 105.03 146.24 46.64" style="fill:#fafafa"></polygon><polygon points="42.25 103.44 45.04 105.03 45.04 260.07 42.25 258.48 42.25 103.44" style="fill:#e0e0e0"></polygon><polygon points="90.25 84.93 93.05 83.31 93.05 226.38 90.25 224.78 90.25 84.93" style="fill:#e0e0e0"></polygon></g><polygon points="98.24 80.33 93.05 83.31 93.05 226.38 98.24 223.37 98.24 80.33" style="fill:#f0f0f0"></polygon><polygon points="146.24 90.91 146.24 96.9 45.04 155.29 45.04 149.31 146.24 90.91" style="fill:#f0f0f0"></polygon><polygon points="146.24 151.42 146.24 157.41 45.04 215.8 45.04 209.81 146.24 151.42" style="fill:#f0f0f0"></polygon><polygon points="93.05 121.59 90.25 119.98 50.23 143.08 50.23 146.31 93.05 121.59" style="fill:#fafafa"></polygon><polygon points="93.05 182.08 90.25 180.47 50.23 203.57 50.23 206.8 93.05 182.08" style="fill:#fafafa"></polygon></g></g></g><g id="freepik--Shelf--inject-159"><g id="freepik--shelf--inject-159"><polygon points="265.25 83.32 237.8 67.47 165.5 109.17 165.5 112.18 192.95 128.03 265.25 86.33 265.25 83.32" style="fill:#ebebeb"></polygon><polygon points="192.95 125.02 265.25 83.32 237.8 67.47 165.5 109.17 192.95 125.02" style="fill:#fafafa"></polygon><polygon points="192.95 125.02 192.95 128.03 165.5 112.18 165.5 109.17 192.95 125.02" style="fill:#e6e6e6"></polygon><polygon points="242.02 38.42 259.82 48.71 259.82 82.58 242.02 72.3 242.02 38.42" style="fill:#ebebeb"></polygon><path d="M259.25,49.27,242,39.38a7.31,7.31,0,0,1-3.94,2.16l17.08,9.84A16.71,16.71,0,0,0,259.25,49.27Z" style="fill:#fff"></path><path d="M253.51,51.32a3.64,3.64,0,0,0,3.31,0l2.9-1.66a1,1,0,0,0,0-1.9l-17-9.75-.72.41,16.7,9.65c.55.31.55.82,0,1.14L256,50.74a2.25,2.25,0,0,1-2,0l-16.69-9.63-.82.47Z" style="fill:#fafafa"></path><path d="M236.52,41.58V75.45l17,9.74a3.64,3.64,0,0,0,3.31,0l2.9-1.66a1.15,1.15,0,0,0,.68-1V48.71a1.17,1.17,0,0,1-.68.95l-2.9,1.67a3.71,3.71,0,0,1-3.31,0Z" style="fill:#e0e0e0"></path><path d="M255.16,51.72a3.45,3.45,0,0,0,1.66-.39l2.9-1.67a1.17,1.17,0,0,0,.68-.95V82.58a1.15,1.15,0,0,1-.68,1l-2.9,1.66a3.34,3.34,0,0,1-1.66.4Z" style="fill:#f0f0f0"></path><polygon points="235.1 44.31 252.91 54.59 247.38 89.49 229.57 79.2 235.1 44.31" style="fill:#ebebeb"></polygon><path d="M252.2,55.08,235,45.19A9.55,9.55,0,0,1,230.38,47l17.08,9.84A22.56,22.56,0,0,0,252.2,55.08Z" style="fill:#fff"></path><path d="M245.68,56.68a4.63,4.63,0,0,0,3.59.16l3.39-1.38c1.06-.44,1.19-1.22.27-1.74l-17-9.75-.84.34L251.8,54c.55.32.48.79-.16,1l-3.15,1.27a2.8,2.8,0,0,1-2.15-.1l-16.7-9.63-.95.39Z" style="fill:#fafafa"></path><path d="M228.69,46.93l-5.53,34.89,17,9.75a4.63,4.63,0,0,0,3.59.17l3.39-1.39c.53-.22.83-.52.88-.83l5.53-34.9c0,.32-.35.62-.88.84l-3.39,1.38a4.59,4.59,0,0,1-3.59-.16Z" style="fill:#e0e0e0"></path><path d="M247.41,57.12a4.52,4.52,0,0,0,1.86-.28l3.39-1.38c.53-.22.83-.52.88-.84L248,89.52c0,.31-.35.61-.88.83l-3.39,1.39a4.83,4.83,0,0,1-1.85.28Z" style="fill:#f0f0f0"></path><g id="freepik--Picture--inject-159"><g id="freepik--frame--inject-159"><polygon points="205.52 107.7 206.78 108.3 230.14 94.82 228.88 94.21 205.52 107.7" style="fill:#fafafa"></polygon><polygon points="228.88 94.21 206.66 107.04 203.42 73.8 225.65 60.98 228.88 94.21" style="fill:#fff"></polygon><path d="M228.7,56.72l-27.65,16,3.81,39.2,27.66-16Zm1.44,38.1L206.78,108.3l-3.36-34.5,23.36-13.49Z" style="fill:#f0f0f0"></path><polygon points="230.14 94.82 228.88 94.21 225.65 60.98 226.78 60.31 230.14 94.82" style="fill:#e0e0e0"></polygon><polygon points="228.7 56.72 227.42 56.13 199.77 72.1 201.05 72.69 228.7 56.72" style="fill:#fafafa"></polygon><polygon points="199.77 72.1 201.05 72.69 204.86 111.89 203.58 111.3 199.77 72.1" style="fill:#e0e0e0"></polygon></g><g id="freepik--Land--inject-159"><polygon points="227.9 93.58 207.41 105.41 206.87 99.81 210.68 83.36 214.31 88.97 213.56 93.7 219.62 76.25 227.35 87.98 227.9 93.58" style="fill:#f0f0f0"></polygon><path d="M210.36,76.43A2.89,2.89,0,0,0,209,79c.09.92.84,1.27,1.68.78A2.88,2.88,0,0,0,212,77.21C212,76.3,211.2,76,210.36,76.43Z" style="fill:#f0f0f0"></path></g></g><g id="freepik--Pot--inject-159"><path id="freepik--Shadow--inject-159" d="M194,105.39c3.79,2.19,3.79,5.74,0,7.92a15.17,15.17,0,0,1-13.73,0c-3.79-2.18-3.79-5.73,0-7.92A15.17,15.17,0,0,1,194,105.39Z" style="opacity:0.05"></path><path d="M181,110.91c-3.31-3.37-5.24-11.78-2-14.45h16.38c3.21,2.67,1.28,11.08-2,14.45l-.09.09a1.14,1.14,0,0,0-.11.11l-.3.26-.08.07-.25.18a4,4,0,0,1-.43.28,10.85,10.85,0,0,1-9.83,0h0a4,4,0,0,1-.43-.28l-.23-.17-.1-.08-.29-.25-.13-.13Z" style="fill:#f5f5f5"></path><path d="M193.91,95.18c3.74,2.16,3.74,5.66,0,7.81a14.94,14.94,0,0,1-13.53,0c-3.74-2.15-3.74-5.65,0-7.81A14.94,14.94,0,0,1,193.91,95.18Z" style="fill:#fff"></path><path d="M191.26,96.71c2.28,1.31,2.28,3.44,0,4.75a9,9,0,0,1-8.23,0c-2.28-1.31-2.28-3.44,0-4.75A9.11,9.11,0,0,1,191.26,96.71Z" style="fill:#ebebeb"></path><path d="M183,99a9.11,9.11,0,0,1,8.23,0,3.92,3.92,0,0,1,1.37,1.25,3.74,3.74,0,0,1-1.37,1.25,9,9,0,0,1-8.23,0,3.7,3.7,0,0,1-1.36-1.25A3.88,3.88,0,0,1,183,99Z" style="fill:#e0e0e0"></path><path d="M190.76,100.21a18.21,18.21,0,0,0,3-4c1.38-2.43,1.63-5.69.92-6.09S191.05,93,191.05,93a17.57,17.57,0,0,0,.31-4.15c-.12-2.17-.65-4.14-1.27-4.53s-2,2.33-2.61,4.31-.95,3.61-.95,3.61a30.3,30.3,0,0,0-1.06-4.56c-.73-2-1.38-2.52-1.89-2.31s-.84,1.16-1,3.9a28.11,28.11,0,0,0,.12,3.92s-1-1.13-2.15-2.22-1.78-1.35-2.13-1.13-.46,2.09,1.47,5.58a19.4,19.4,0,0,0,3.64,4.78S186.2,101.93,190.76,100.21Z" style="fill:#ebebeb"></path></g></g></g><g id="freepik--Shadows--inject-159"><polygon id="freepik--shadow--inject-159" points="408.16 297.15 139.54 452.24 54.64 403.23 323.25 248.14 408.16 297.15" style="fill:#e0e0e0"></polygon><path id="freepik--shadow--inject-159" d="M463.48,306.16c9.94,5.81,9.94,15.23,0,21s-26.09,5.81-36,0-9.94-15.23,0-21S453.53,300.35,463.48,306.16Z" style="fill:#e0e0e0"></path><ellipse id="freepik--shadow--inject-159" cx="391.05" cy="408.25" rx="71.52" ry="41.29" style="fill:#e0e0e0"></ellipse><ellipse id="freepik--shadow--inject-159" cx="57.57" cy="419" rx="39.88" ry="23.03" style="fill:#e0e0e0"></ellipse></g><g id="freepik--Plant--inject-159"><g id="freepik--plant--inject-159"><g id="freepik--pot--inject-159"><path d="M430.17,320.12c-8.17-8.43-13-29.76-5-36.45h40.58c8,6.69,3.18,28-5,36.44l-.23.24-.28.28c-.23.22-.48.44-.74.66l-.19.16-.62.47a11.14,11.14,0,0,1-1.06.68c-6.73,3.93-17.63,3.93-24.36,0h0a11.27,11.27,0,0,1-1.06-.69c-.21-.14-.39-.29-.58-.44l-.24-.19c-.25-.21-.49-.42-.71-.64l-.33-.32Z" style="fill:#ebebeb"></path><path d="M462.23,281c9.26,5.4,9.26,14.17,0,19.57s-24.27,5.41-33.53,0-9.26-14.17,0-19.57S453,275.57,462.23,281Z" style="fill:#fafafa"></path><path d="M457.77,283.58c6.8,4,6.8,10.4,0,14.37s-17.82,4-24.62,0-6.8-10.4,0-14.37S451,279.61,457.77,283.58Z" style="fill:#ebebeb"></path><path d="M433.15,290.4c6.8-4,17.82-4,24.62,0a11.33,11.33,0,0,1,4.08,3.78,11.39,11.39,0,0,1-4.08,3.77c-6.8,4-17.82,4-24.62,0a11.36,11.36,0,0,1-4.07-3.77A11.29,11.29,0,0,1,433.15,290.4Z" style="fill:#fff"></path></g><path d="M439.91,251.39c-2.74,3.46-11,5-15.07-3.5-3.85-7.95-7.92-15.45-9.14-18.39a3.1,3.1,0,0,1,1.68-4.15s-.11-4.52,7.76-2,13.6,6.69,17.5,13.93S444.94,250,439.91,251.39Z" style="fill:#f0f0f0"></path><path d="M444.09,262.69a40.8,40.8,0,0,0-1-4.51,63,63,0,0,0-3.2-8.6,65,65,0,0,0-10.09-15.65,56.47,56.47,0,0,0-7.55-7.36c-.09-.06-.13.12-.08.17a69.67,69.67,0,0,1,12,14.21,70.7,70.7,0,0,1,7.6,16.58c.5,1.63,1,3.27,1.42,4.92s.74,3.39,1.16,5.07c0,.17.31.25.31,0A33.13,33.13,0,0,0,444.09,262.69Z" style="fill:#e0e0e0"></path><path d="M444.09,262.69a40.8,40.8,0,0,0-1-4.51,63,63,0,0,0-3.2-8.6,65,65,0,0,0-10.09-15.65,56.47,56.47,0,0,0-7.55-7.36c-.09-.06-.13.12-.08.17a69.67,69.67,0,0,1,12,14.21,70.7,70.7,0,0,1,7.6,16.58c.5,1.63,1,3.27,1.42,4.92s.74,3.39,1.16,5.07c0,.17.31.25.31,0A33.13,33.13,0,0,0,444.09,262.69Z" style="opacity:0.1"></path><path d="M448.83,245.31c-7.14,2.21-12.45-3.36-10.61-12.11s11-18.44,14.49-15.83c2.16-2.17,6.93-1.39,9.18,5.71S462.09,248.41,448.83,245.31Z" style="fill:#e0e0e0"></path><path d="M453,222.68a95.44,95.44,0,0,0-4.75,15.71,155.09,155.09,0,0,0-2.76,16.45c-1.28,10.68-1.5,10.08-1.43,20.83,0,3,.07,5.95.12,8.92s0,6.16.27,9.2c.11,1.17,1.77.86,1.79-.21.1-5.35-.19-10.73-.24-16.08a35.39,35.39,0,0,1,.09-4.49,223.9,223.9,0,0,1,2.9-32.19c.5-3,1.07-5.92,1.76-8.85.73-3.08,1.62-6.11,2.43-9.17C453.23,222.68,453.09,222.52,453,222.68Z" style="fill:#e0e0e0"></path><path d="M453,222.68a95.44,95.44,0,0,0-4.75,15.71,155.09,155.09,0,0,0-2.76,16.45c-1.28,10.68-1.5,10.08-1.43,20.83,0,3,.07,5.95.12,8.92s0,6.16.27,9.2c.11,1.17,1.77.86,1.79-.21.1-5.35-.19-10.73-.24-16.08a35.39,35.39,0,0,1,.09-4.49,223.9,223.9,0,0,1,2.9-32.19c.5-3,1.07-5.92,1.76-8.85.73-3.08,1.62-6.11,2.43-9.17C453.23,222.68,453.09,222.52,453,222.68Z" style="opacity:0.1"></path><path d="M432.3,268.94c-.91,4.62-7.25,8-14.56,4.93S396,251.82,402.58,249.72c-.36-3.45,19.57-6.28,29.43,5.87C439.18,264.42,432.3,268.94,432.3,268.94Z" style="fill:#e0e0e0"></path><path d="M442.76,275.8a32.82,32.82,0,0,0-3-3.27q-3.21-3.16-6.72-6a90.9,90.9,0,0,0-15.43-9.92,81.44,81.44,0,0,0-9.32-4.24c-.09,0-.06.14,0,.17,2.66,1.25,5.33,2.48,7.9,3.91s5.25,3.15,7.75,4.89a113,113,0,0,1,13.63,11.16c1.2,1.15,2.35,2.37,3.56,3.51s2.62,2.28,3.83,3.53c.17.18.49.1.3-.17C444.43,278.19,443.66,277,442.76,275.8Z" style="fill:#e0e0e0"></path><path d="M442.76,275.8a32.82,32.82,0,0,0-3-3.27q-3.21-3.16-6.72-6a90.9,90.9,0,0,0-15.43-9.92,81.44,81.44,0,0,0-9.32-4.24c-.09,0-.06.14,0,.17,2.66,1.25,5.33,2.48,7.9,3.91s5.25,3.15,7.75,4.89a113,113,0,0,1,13.63,11.16c1.2,1.15,2.35,2.37,3.56,3.51s2.62,2.28,3.83,3.53c.17.18.49.1.3-.17C444.43,278.19,443.66,277,442.76,275.8Z" style="opacity:0.1"></path><path d="M450.37,277.32c-3.83-1.69-3.1-6.54,3.05-11.48s19.27-5.08,19.39-2.48c2.8.55,1.11,9.33-6.66,16.21S449.7,282.82,450.37,277.32Z" style="fill:#e0e0e0"></path><path d="M459.88,270.24A32.22,32.22,0,0,0,445.39,283c-.19.32.3.93.52.59a37.56,37.56,0,0,1,14-13.24S459.94,270.22,459.88,270.24Z" style="fill:#e0e0e0"></path><path d="M459.88,270.24A32.22,32.22,0,0,0,445.39,283c-.19.32.3.93.52.59a37.56,37.56,0,0,1,14-13.24S459.94,270.22,459.88,270.24Z" style="opacity:0.1"></path><path d="M451.16,285.77c-4.44,4.37.47,9.77,7.67,12.45a25.77,25.77,0,0,0,18.65-.87c3.48-1.73,4.19-2.6,4.19-2.6S480,289,478,285.93a18.46,18.46,0,0,0-18.17-8.35C450.6,278.76,449.85,282.6,451.16,285.77Z" style="fill:#f0f0f0"></path><path d="M469.8,289.05a46.62,46.62,0,0,0-11.29-4.18c-3.86-.74-8.62-.78-11.74,2-1.22,1.07-2.83,3.38-1.84,5,.1.16.58.47.69.14a15.37,15.37,0,0,1,1-3A6.12,6.12,0,0,1,449,286.7a14.32,14.32,0,0,1,8.18-1.39c4.4.42,8.54,2.19,12.59,3.84C469.84,289.17,469.84,289.07,469.8,289.05Z" style="fill:#e0e0e0"></path><path d="M469.8,289.05a46.62,46.62,0,0,0-11.29-4.18c-3.86-.74-8.62-.78-11.74,2-1.22,1.07-2.83,3.38-1.84,5,.1.16.58.47.69.14a15.37,15.37,0,0,1,1-3A6.12,6.12,0,0,1,449,286.7a14.32,14.32,0,0,1,8.18-1.39c4.4.42,8.54,2.19,12.59,3.84C469.84,289.17,469.84,289.07,469.8,289.05Z" style="opacity:0.1"></path><path d="M452.38,258.28c-1.11,3.9,3.87,7.55,10.07,5.46s12.63-4,17.91-4.09,8.63-3.54,7.54-5.89-2.36-7.9-15.82-9.49-19.53,3.16-22.34,6.87S450.13,258.93,452.38,258.28Z" style="fill:#f0f0f0"></path><path d="M477.39,250.08a16.3,16.3,0,0,0-4.35-.4,26.71,26.71,0,0,0-4.19.34,32.71,32.71,0,0,0-7.91,2.46c-4.73,2.1-9.43,4.84-12.5,9.1a30.26,30.26,0,0,0-4,7.42c-.18.5.79.78,1,.33a55.64,55.64,0,0,1,3.37-6.45,19.94,19.94,0,0,1,5.15-5.37A41.12,41.12,0,0,1,468.29,251a29.15,29.15,0,0,1,4.56-.67,43.53,43.53,0,0,1,4.57.17C477.62,250.49,477.53,250.11,477.39,250.08Z" style="fill:#e0e0e0"></path><path d="M477.39,250.08a16.3,16.3,0,0,0-4.35-.4,26.71,26.71,0,0,0-4.19.34,32.71,32.71,0,0,0-7.91,2.46c-4.73,2.1-9.43,4.84-12.5,9.1a30.26,30.26,0,0,0-4,7.42c-.18.5.79.78,1,.33a55.64,55.64,0,0,1,3.37-6.45,19.94,19.94,0,0,1,5.15-5.37A41.12,41.12,0,0,1,468.29,251a29.15,29.15,0,0,1,4.56-.67,43.53,43.53,0,0,1,4.57.17C477.62,250.49,477.53,250.11,477.39,250.08Z" style="opacity:0.1"></path><path d="M441.34,280.28c-1-4-6.14-6.27-12.79-6.76A17.38,17.38,0,0,0,412,282c-3.48,5.94-4.92,10.68-2.81,11.46s11.05,2,16.82,2.52,13-.52,17.67-4.91S446.85,281.2,441.34,280.28Z" style="fill:#e0e0e0"></path><path d="M441.59,279.75a17.54,17.54,0,0,0-7.18-.34,32.1,32.1,0,0,0-6.78,1.57,44,44,0,0,0-6.72,3c-1.12.61-2.23,1.27-3.31,2a25.38,25.38,0,0,0-3,2.05s0,.17,0,.14c1.09-.49,2.11-1.18,3.16-1.76s2.26-1.26,3.41-1.84a48.58,48.58,0,0,1,6.65-2.82,31.63,31.63,0,0,1,7.06-1.51,42,42,0,0,1,6.73.17C442.13,280.42,441.87,279.84,441.59,279.75Z" style="fill:#e0e0e0"></path><path d="M441.59,279.75a17.54,17.54,0,0,0-7.18-.34,32.1,32.1,0,0,0-6.78,1.57,44,44,0,0,0-6.72,3c-1.12.61-2.23,1.27-3.31,2a25.38,25.38,0,0,0-3,2.05s0,.17,0,.14c1.09-.49,2.11-1.18,3.16-1.76s2.26-1.26,3.41-1.84a48.58,48.58,0,0,1,6.65-2.82,31.63,31.63,0,0,1,7.06-1.51,42,42,0,0,1,6.73.17C442.13,280.42,441.87,279.84,441.59,279.75Z" style="opacity:0.1"></path></g></g><g id="freepik--Device--inject-159"><g id="freepik--device--inject-159"><g id="freepik--Case--inject-159"><path d="M330.29,253l5-2.89s26.54-86.58,29-91.6-2-7.58-6.78-4.82L108.39,297.36c-4.78,2.76-6.29,6.55-10.54,14.81S69.64,400,69.64,400a4.42,4.42,0,0,0,2.13,4.67l56.72,32.86L389.08,287.06Z" style="fill:#FFC100"></path><path d="M330.29,253l5-2.89s26.54-86.58,29-91.6-2-7.58-6.78-4.82L108.39,297.36c-4.78,2.76-6.29,6.55-10.54,14.81S69.64,400,69.64,400a4.42,4.42,0,0,0,2.13,4.67l56.72,32.86L389.08,287.06Z" style="fill:#fff;opacity:0.35000000000000003"></path><path d="M101,314.17c-3.23,6.26-28.19,87.5-28.19,87.5L338.44,248.3s26.35-82.58,29-87.78-2-7.58-6.78-4.82L111.51,299.36C106.73,302.12,104.21,307.91,101,314.17Z" style="fill:#FFC100"></path><path d="M101,314.17c-3.23,6.26-28.19,87.5-28.19,87.5L338.44,248.3s26.35-82.58,29-87.78-2-7.58-6.78-4.82L111.51,299.36C106.73,302.12,104.21,307.91,101,314.17Z" style="opacity:0.15"></path><polygon points="333.38 251.23 72.79 401.67 130.5 435 391.09 284.55 333.38 251.23" style="fill:#FFC100"></polygon><path d="M351.53,61.49,100.47,206.17c-5.51,3.18-7.23,8.33-6.26,15.11l29.71,208.5c1,6.78,6.37,10.75,11.88,7.57l248.84-143.6c5.5-3.18,9.18-11.26,8.21-18L363.25,68C362.28,61.23,357,58.31,351.53,61.49Z" style="fill:#FFC100"></path><path d="M351.53,61.49,100.47,206.17c-5.51,3.18-7.23,8.33-6.26,15.11l29.71,208.5c1,6.78,6.37,10.75,11.88,7.57l248.84-143.6c5.5-3.18,9.18-11.26,8.21-18L363.25,68C362.28,61.23,357,58.31,351.53,61.49Z" style="fill:#fff;opacity:0.35000000000000003"></path></g><g id="freepik--Tablet--inject-159"><path d="M368.45,65.91a7.78,7.78,0,0,0-6.77.84L112.83,210.37a16.79,16.79,0,0,0-6.34,7.29l-8-3.41c1.77-3.85,4.85-5.26,7.48-6.79L354.77,63.84a7.62,7.62,0,0,1,7-.72h0Z" style="fill:#455a64"></path><path d="M132,439.45h0c-2.46-1-4.3-3.58-4.83-7.3L97.72,225.48c-.61-4.23-.81-8,.73-11.23l8,3.4c-.22.45-.41.9-.6,1.37s-.28.74-.39,1.11a.41.41,0,0,0,0,.18,9.69,9.69,0,0,0-.38,1.3c-.12.45-.22.91-.3,1.36a8.8,8.8,0,0,0-.14,1,16.21,16.21,0,0,0,0,4.4l29.6,207.7c.54,3.77,2.4,6.35,4.9,7.35Z" style="fill:#263238"></path><path d="M361.68,66.77,110.62,211.45c-5.51,3.18-7.23,8.33-6.26,15.11l29.86,209.55c1,6.78,6.22,9.7,11.73,6.52L394.78,299c5.51-3.18,9.19-11.26,8.22-18L373.4,73.29C372.43,66.51,367.18,63.59,361.68,66.77Z" style="fill:#37474f"></path><path d="M379.51,298.07,157.39,426.25c-2.85,1.64-5.57.13-6.07-3.38L122,217.31c-.51-3.51,1.4-7.69,4.25-9.34L348.39,79.79c2.85-1.65,5.57-.13,6.07,3.38l29.3,205.56C384.26,292.24,382.36,296.42,379.51,298.07Z" style="fill:#263238"></path><path d="M122,217.31l29.3,205.56c0,.14.05.27.07.4L373.51,295.1c2.85-1.65,4.75-5.83,4.25-9.35l-29.37-206L126.27,208C123.42,209.62,121.51,213.8,122,217.31Z" style="fill:#fff"></path><path d="M133.35,344.59a5,5,0,0,1-2.14,4.7c-1.44.83-2.81.07-3.06-1.7a5,5,0,0,1,2.14-4.7C131.72,342.07,133.09,342.83,133.35,344.59Z" style="fill:#263238"></path><path d="M123.63,296.46h0a3.88,3.88,0,0,0-1.66,3.66L126.82,334c.2,1.38,1.26,2,2.38,1.32h0a3.86,3.86,0,0,0,1.66-3.65L126,297.78C125.81,296.41,124.75,295.82,123.63,296.46Z" style="fill:#263238"></path></g><polygon points="176.67 210.82 158.89 221.09 155.75 199.19 173.54 188.92 176.67 210.82" style="fill:#FFC100"></polygon><polygon points="176.67 210.82 158.89 221.09 155.75 199.19 173.54 188.92 176.67 210.82" style="fill:#fff;opacity:0.85"></polygon><path d="M158.69,221.49l-3.21-22.44.15-.08,18.1-10.45L176.94,211l-.14.09ZM156,199.32l3.06,21.37,17.32-10-3.06-21.37Z" style="fill:#FFC100"></path><polygon points="194.46 200.55 176.67 210.82 173.54 188.92 191.32 178.65 194.46 200.55" style="fill:#FFC100"></polygon><polygon points="194.46 200.55 176.67 210.82 173.54 188.92 191.32 178.65 194.46 200.55" style="fill:#fff;opacity:0.85"></polygon><path d="M176.48,211.22l-3.21-22.43.14-.09,18.11-10.45,3.21,22.43-.15.09Zm-2.67-22.17,3.06,21.37,17.31-10-3.06-21.37Z" style="fill:#FFC100"></path><polygon points="212.24 190.28 194.46 200.55 191.32 178.65 209.1 168.38 212.24 190.28" style="fill:#FFC100"></polygon><polygon points="212.24 190.28 194.46 200.55 191.32 178.65 209.1 168.38 212.24 190.28" style="fill:#fff;opacity:0.85"></polygon><path d="M194.26,201l-3.21-22.43.14-.09L209.3,168l3.21,22.44-.15.08Zm-2.67-22.17,3.06,21.37,17.32-10-3.06-21.36Z" style="fill:#FFC100"></path><polygon points="179.81 232.72 162.02 242.99 158.89 221.09 176.67 210.82 179.81 232.72" style="fill:#FFC100"></polygon><polygon points="179.81 232.72 162.02 242.99 158.89 221.09 176.67 210.82 179.81 232.72" style="fill:#fff;opacity:0.85"></polygon><path d="M161.83,243.39,158.62,221l.14-.09,18.11-10.45,3.21,22.43-.15.09Zm-2.67-22.17,3.06,21.37,17.32-10-3.06-21.37Z" style="fill:#FFC100"></path><polygon points="197.59 222.45 179.81 232.72 176.67 210.82 194.46 200.55 197.59 222.45" style="fill:#FFC100"></polygon><polygon points="197.59 222.45 179.81 232.72 176.67 210.82 194.46 200.55 197.59 222.45" style="fill:#fff;opacity:0.85"></polygon><path d="M179.61,233.12l-3.21-22.43.15-.09,18.1-10.45,3.21,22.44-.14.08ZM176.94,211,180,232.32l17.32-10L194.26,201Z" style="fill:#FFC100"></path><polygon points="215.38 212.19 197.59 222.45 194.46 200.55 212.24 190.28 215.38 212.19" style="fill:#FFC100"></polygon><polygon points="215.38 212.19 197.59 222.45 194.46 200.55 212.24 190.28 215.38 212.19" style="fill:#fff;opacity:0.85"></polygon><path d="M197.4,222.85l-3.22-22.43.15-.08,18.1-10.46,3.22,22.44-.15.08Zm-2.67-22.17,3.06,21.37,17.31-10L212,190.69Z" style="fill:#FFC100"></path><polygon points="182.94 254.62 165.16 264.89 162.02 242.99 179.81 232.72 182.94 254.62" style="fill:#FFC100"></polygon><polygon points="182.94 254.62 165.16 264.89 162.02 242.99 179.81 232.72 182.94 254.62" style="fill:#fff;opacity:0.85"></polygon><path d="M165,265.29l-3.21-22.43.15-.09L180,232.32l3.22,22.43-.15.09Zm-2.66-22.17,3,21.37,17.32-10-3.06-21.37Z" style="fill:#FFC100"></path><polygon points="200.73 244.35 182.94 254.62 179.81 232.72 197.59 222.45 200.73 244.35" style="fill:#FFC100"></polygon><polygon points="200.73 244.35 182.94 254.62 179.81 232.72 197.59 222.45 200.73 244.35" style="fill:#fff;opacity:0.85"></polygon><path d="M182.75,255l-3.21-22.43.14-.09,18.11-10.45L201,244.49l-.15.08Zm-2.67-22.17,3.06,21.37,17.32-10-3.06-21.37Z" style="fill:#FFC100"></path><polygon points="218.51 234.09 200.73 244.35 197.59 222.45 215.38 212.19 218.51 234.09" style="fill:#FFC100"></polygon><polygon points="218.51 234.09 200.73 244.35 197.59 222.45 215.38 212.19 218.51 234.09" style="fill:#fff;opacity:0.85"></polygon><path d="M200.53,244.76l-3.21-22.44.15-.08,18.1-10.46,3.21,22.44-.14.08Zm-2.67-22.17L200.92,244l17.32-10-3.06-21.37Z" style="fill:#FFC100"></path><polygon points="239.43 245.72 221.65 255.99 218.51 234.09 236.29 223.82 239.43 245.72" style="fill:#FFC100"></polygon><polygon points="239.43 245.72 221.65 255.99 218.51 234.09 236.29 223.82 239.43 245.72" style="fill:#fff;opacity:0.85"></polygon><path d="M221.45,256.39,218.24,234l.15-.09,18.1-10.45,3.21,22.43-.14.09Zm-2.67-22.17,3.06,21.37,17.32-10-3.06-21.37Z" style="fill:#FFC100"></path><polygon points="257.21 235.45 239.43 245.72 236.29 223.82 254.08 213.55 257.21 235.45" style="fill:#FFC100"></polygon><polygon points="257.21 235.45 239.43 245.72 236.29 223.82 254.08 213.55 257.21 235.45" style="fill:#fff;opacity:0.85"></polygon><path d="M239.23,246.12,236,223.69l.15-.09,18.1-10.45,3.22,22.44-.15.08ZM236.57,224l3.06,21.37,17.31-10L253.88,214Z" style="fill:#FFC100"></path><polygon points="275 225.19 257.21 235.45 254.08 213.55 271.86 203.28 275 225.19" style="fill:#FFC100"></polygon><polygon points="275 225.19 257.21 235.45 254.08 213.55 271.86 203.28 275 225.19" style="fill:#fff;opacity:0.85"></polygon><path d="M257,235.85l-3.21-22.43.14-.08,18.11-10.46,3.21,22.44-.15.08Zm-2.67-22.17,3.06,21.37,17.32-10-3.06-21.36Z" style="fill:#FFC100"></path><polygon points="242.57 267.62 224.78 277.89 221.65 255.99 239.43 245.72 242.57 267.62" style="fill:#FFC100"></polygon><polygon points="242.57 267.62 224.78 277.89 221.65 255.99 239.43 245.72 242.57 267.62" style="fill:#fff;opacity:0.85"></polygon><path d="M224.59,278.29l-3.21-22.43.14-.09,18.11-10.45,3.21,22.43-.15.09Zm-2.67-22.17L225,277.49l17.31-10-3.06-21.37Z" style="fill:#FFC100"></path><polygon points="260.35 257.36 242.57 267.62 239.43 245.72 257.21 235.45 260.35 257.36" style="fill:#FFC100"></polygon><polygon points="260.35 257.36 242.57 267.62 239.43 245.72 257.21 235.45 260.35 257.36" style="fill:#fff;opacity:0.85"></polygon><path d="M242.37,268l-3.21-22.43.15-.09,18.1-10.45,3.21,22.44-.15.08Zm-2.67-22.17,3.06,21.37,17.32-10L257,235.85Z" style="fill:#FFC100"></path><polygon points="278.13 247.09 260.35 257.36 257.21 235.45 275 225.19 278.13 247.09" style="fill:#FFC100"></polygon><polygon points="278.13 247.09 260.35 257.36 257.21 235.45 275 225.19 278.13 247.09" style="fill:#fff;opacity:0.85"></polygon><path d="M260.15,257.76l-3.21-22.44.15-.08,18.1-10.46,3.21,22.44-.14.08Zm-2.66-22.17L260.55,257l17.31-10-3.06-21.37Z" style="fill:#FFC100"></path><polygon points="245.7 289.52 227.92 299.79 224.78 277.89 242.57 267.62 245.7 289.52" style="fill:#FFC100"></polygon><polygon points="245.7 289.52 227.92 299.79 224.78 277.89 242.57 267.62 245.7 289.52" style="fill:#fff;opacity:0.85"></polygon><path d="M227.72,300.19l-3.21-22.43.15-.09,18.1-10.45L246,289.66l-.14.08ZM225.05,278l3.06,21.37,17.32-10L242.37,268Z" style="fill:#FFC100"></path><polygon points="263.49 279.26 245.7 289.52 242.57 267.62 260.35 257.36 263.49 279.26" style="fill:#FFC100"></polygon><polygon points="263.49 279.26 245.7 289.52 242.57 267.62 260.35 257.36 263.49 279.26" style="fill:#fff;opacity:0.85"></polygon><path d="M245.51,289.93l-3.22-22.44.15-.08L260.55,257l3.21,22.44-.15.08Zm-2.67-22.18,3.06,21.37,17.31-10-3.06-21.36Z" style="fill:#FFC100"></path><polygon points="281.27 268.99 263.49 279.26 260.35 257.36 278.13 247.09 281.27 268.99" style="fill:#FFC100"></polygon><polygon points="281.27 268.99 263.49 279.26 260.35 257.36 278.13 247.09 281.27 268.99" style="fill:#fff;opacity:0.85"></polygon><path d="M263.29,279.66l-3.21-22.44.14-.08,18.11-10.45,3.21,22.43-.15.09Zm-2.67-22.17,3.06,21.36,17.32-10-3.06-21.37Z" style="fill:#FFC100"></path><polygon points="283.37 149.22 265.59 159.48 262.45 137.58 280.24 127.31 283.37 149.22" style="fill:#FFC100"></polygon><polygon points="283.37 149.22 265.59 159.48 262.45 137.58 280.24 127.31 283.37 149.22" style="fill:#fff;opacity:0.85"></polygon><path d="M265.39,159.88l-3.21-22.43.15-.09,18.1-10.45,3.22,22.44-.15.08Zm-2.66-22.17,3.06,21.37,17.31-10L280,127.72Z" style="fill:#FFC100"></path><polygon points="301.16 138.95 283.37 149.22 280.24 127.31 298.02 117.05 301.16 138.95" style="fill:#FFC100"></polygon><polygon points="301.16 138.95 283.37 149.22 280.24 127.31 298.02 117.05 301.16 138.95" style="fill:#fff;opacity:0.85"></polygon><path d="M283.18,149.62,280,127.18l.14-.08,18.11-10.45,3.21,22.43-.15.08Zm-2.67-22.17,3.06,21.36,17.32-10-3.06-21.37Z" style="fill:#FFC100"></path><polygon points="318.94 128.68 301.16 138.95 298.02 117.05 315.81 106.78 318.94 128.68" style="fill:#FFC100"></polygon><polygon points="318.94 128.68 301.16 138.95 298.02 117.05 315.81 106.78 318.94 128.68" style="fill:#fff;opacity:0.85"></polygon><path d="M301,139.35l-3.21-22.43.15-.09L316,106.38l3.21,22.43-.14.09Zm-2.67-22.17,3.06,21.37,17.32-10-3.06-21.37Z" style="fill:#FFC100"></path><polygon points="286.51 171.12 268.73 181.38 265.59 159.48 283.37 149.22 286.51 171.12" style="fill:#FFC100"></polygon><polygon points="286.51 171.12 268.73 181.38 265.59 159.48 283.37 149.22 286.51 171.12" style="fill:#fff;opacity:0.85"></polygon><path d="M268.53,181.79l-3.21-22.44.15-.08,18.1-10.46,3.21,22.44-.14.08Zm-2.67-22.18L268.92,181l17.32-10-3.06-21.36Z" style="fill:#FFC100"></path><polygon points="304.29 160.85 286.51 171.12 283.37 149.22 301.16 138.95 304.29 160.85" style="fill:#FFC100"></polygon><polygon points="304.29 160.85 286.51 171.12 283.37 149.22 301.16 138.95 304.29 160.85" style="fill:#fff;opacity:0.85"></polygon><path d="M286.31,171.52l-3.21-22.44.15-.08,18.1-10.45L304.56,161l-.14.09Zm-2.66-22.17,3.06,21.37,17.31-10L301,139.35Z" style="fill:#FFC100"></path><polygon points="322.08 150.58 304.29 160.85 301.16 138.95 318.94 128.68 322.08 150.58" style="fill:#FFC100"></polygon><polygon points="322.08 150.58 304.29 160.85 301.16 138.95 318.94 128.68 322.08 150.58" style="fill:#fff;opacity:0.85"></polygon><path d="M304.1,161.25l-3.21-22.43.14-.09,18.11-10.45,3.21,22.43-.15.09Zm-2.67-22.17,3.06,21.37,17.32-10-3.06-21.37Z" style="fill:#FFC100"></path><polygon points="289.64 193.02 271.86 203.28 268.73 181.38 286.51 171.12 289.64 193.02" style="fill:#FFC100"></polygon><polygon points="289.64 193.02 271.86 203.28 268.73 181.38 286.51 171.12 289.64 193.02" style="fill:#fff;opacity:0.85"></polygon><path d="M271.67,203.69l-3.22-22.44.15-.08,18.11-10.45,3.21,22.43-.15.08ZM269,181.52l3.06,21.36,17.31-10-3.06-21.37Z" style="fill:#FFC100"></path><polygon points="307.43 182.75 289.64 193.02 286.51 171.12 304.29 160.85 307.43 182.75" style="fill:#FFC100"></polygon><polygon points="307.43 182.75 289.64 193.02 286.51 171.12 304.29 160.85 307.43 182.75" style="fill:#fff;opacity:0.85"></polygon><path d="M289.45,193.42,286.24,171l.15-.08,18.1-10.45,3.21,22.43-.15.09Zm-2.67-22.17,3.06,21.37,17.32-10-3.06-21.37Z" style="fill:#FFC100"></path><polygon points="325.21 172.48 307.43 182.75 304.29 160.85 322.08 150.58 325.21 172.48" style="fill:#FFC100"></polygon><polygon points="325.21 172.48 307.43 182.75 304.29 160.85 322.08 150.58 325.21 172.48" style="fill:#fff;opacity:0.85"></polygon><path d="M307.23,183.15,304,160.72l.15-.09,18.1-10.45,3.21,22.43-.14.09ZM304.56,161l3.06,21.37,17.32-10L321.88,151Z" style="fill:#FFC100"></path><polygon points="230.02 180.02 212.24 190.28 209.1 168.38 226.89 158.12 230.02 180.02" style="fill:#fafafa"></polygon><path d="M212,190.69l-3.21-22.44.15-.08,18.1-10.45,3.21,22.43-.14.08Zm-2.66-22.17,3.05,21.36,17.32-10-3.06-21.37Z" style="fill:#FFC100"></path><polygon points="247.81 169.75 230.02 180.02 226.89 158.12 244.67 147.85 247.81 169.75" style="fill:#fafafa"></polygon><path d="M229.83,180.42,226.62,158l.14-.08,18.11-10.45,3.21,22.43-.15.09Zm-2.67-22.17,3.06,21.37,17.32-10-3.06-21.37Z" style="fill:#FFC100"></path><polygon points="265.59 159.48 247.81 169.75 244.67 147.85 262.45 137.58 265.59 159.48" style="fill:#fafafa"></polygon><path d="M247.61,170.15l-3.21-22.43.15-.09,18.1-10.45,3.21,22.43-.14.09ZM244.94,148,248,169.35l17.32-10L262.26,138Z" style="fill:#FFC100"></path><polygon points="233.16 201.92 215.38 212.19 212.24 190.28 230.02 180.02 233.16 201.92" style="fill:#fafafa"></polygon><path d="M215.18,212.59,212,190.15l.14-.08,18.11-10.45,3.21,22.43-.15.08Zm-2.67-22.17,3.06,21.36,17.32-10-3.06-21.37Z" style="fill:#FFC100"></path><polygon points="250.94 191.65 233.16 201.92 230.02 180.02 247.81 169.75 250.94 191.65" style="fill:#fafafa"></polygon><path d="M233,202.32l-3.21-22.43.15-.09L248,169.35l3.21,22.43-.14.09Zm-2.67-22.17,3.06,21.37,17.32-10-3.06-21.37Z" style="fill:#FFC100"></path><polygon points="268.73 181.38 250.94 191.65 247.81 169.75 265.59 159.48 268.73 181.38" style="fill:#fafafa"></polygon><path d="M250.75,192.05l-3.21-22.43.14-.09,18.11-10.45L269,181.52l-.15.08Zm-2.67-22.17,3.06,21.37,17.31-10-3.06-21.37Z" style="fill:#FFC100"></path><polygon points="236.29 223.82 218.51 234.09 215.38 212.19 233.16 201.92 236.29 223.82" style="fill:#fafafa"></polygon><path d="M218.32,234.49l-3.22-22.44.15-.08,18.1-10.45L236.57,224l-.15.09Zm-2.67-22.17,3.06,21.37,17.31-10L233,202.32Z" style="fill:#FFC100"></path><polygon points="254.08 213.55 236.29 223.82 233.16 201.92 250.94 191.65 254.08 213.55" style="fill:#fafafa"></polygon><path d="M236.1,224.22l-3.21-22.43.14-.09,18.11-10.45,3.21,22.43-.15.09Zm-2.67-22.17,3.06,21.37,17.32-10-3.06-21.37Z" style="fill:#FFC100"></path><polygon points="271.86 203.28 254.08 213.55 250.94 191.65 268.73 181.38 271.86 203.28" style="fill:#fafafa"></polygon><path d="M253.88,214l-3.21-22.43.15-.09L268.92,181l3.21,22.44-.14.08Zm-2.67-22.17,3.06,21.37,17.32-10-3.06-21.36Z" style="fill:#FFC100"></path><polygon points="195.49 342.22 177.7 352.48 174.56 330.58 192.35 320.31 195.49 342.22" style="fill:#FFC100"></polygon><polygon points="195.49 342.22 177.7 352.48 174.56 330.58 192.35 320.31 195.49 342.22" style="fill:#fff;opacity:0.85"></polygon><path d="M177.51,352.88l-3.22-22.43.15-.08,18.1-10.46,3.22,22.44-.15.08Zm-2.67-22.17,3.06,21.37,17.31-10-3.06-21.36Z" style="fill:#FFC100"></path><polygon points="213.27 331.95 195.49 342.22 192.35 320.31 210.13 310.05 213.27 331.95" style="fill:#FFC100"></polygon><polygon points="213.27 331.95 195.49 342.22 192.35 320.31 210.13 310.05 213.27 331.95" style="fill:#fff;opacity:0.85"></polygon><path d="M195.29,342.62l-3.21-22.44.14-.08,18.11-10.45,3.21,22.43-.15.09Zm-2.67-22.17,3.06,21.36,17.32-10-3.06-21.37Z" style="fill:#FFC100"></path><polygon points="231.05 321.68 213.27 331.95 210.13 310.05 227.92 299.78 231.05 321.68" style="fill:#FFC100"></polygon><polygon points="231.05 321.68 213.27 331.95 210.13 310.05 227.92 299.78 231.05 321.68" style="fill:#fff;opacity:0.85"></polygon><path d="M213.07,332.35l-3.21-22.43.15-.09,18.1-10.45,3.21,22.43-.14.09Zm-2.67-22.17,3.06,21.37,17.32-10-3.06-21.37Z" style="fill:#FFC100"></path><polygon points="198.62 364.12 180.84 374.38 177.7 352.48 195.49 342.22 198.62 364.12" style="fill:#FFC100"></polygon><polygon points="198.62 364.12 180.84 374.38 177.7 352.48 195.49 342.22 198.62 364.12" style="fill:#fff;opacity:0.85"></polygon><path d="M180.64,374.79l-3.21-22.44.15-.08,18.1-10.46,3.21,22.44-.14.08ZM178,352.62,181,374l17.32-10-3.06-21.37Z" style="fill:#FFC100"></path><polygon points="216.4 353.85 198.62 364.12 195.49 342.22 213.27 331.95 216.4 353.85" style="fill:#FFC100"></polygon><polygon points="216.4 353.85 198.62 364.12 195.49 342.22 213.27 331.95 216.4 353.85" style="fill:#fff;opacity:0.85"></polygon><path d="M198.43,364.52l-3.22-22.44.15-.08,18.1-10.45L216.68,354l-.15.09Zm-2.67-22.17,3.06,21.37,17.31-10-3.06-21.37Z" style="fill:#FFC100"></path><polygon points="234.19 343.58 216.4 353.85 213.27 331.95 231.05 321.68 234.19 343.58" style="fill:#FFC100"></polygon><polygon points="234.19 343.58 216.4 353.85 213.27 331.95 231.05 321.68 234.19 343.58" style="fill:#fff;opacity:0.85"></polygon><path d="M216.21,354.25,213,331.82l.14-.09,18.11-10.45,3.21,22.43-.15.09Zm-2.67-22.17,3.06,21.37,17.32-10-3.06-21.37Z" style="fill:#FFC100"></path><polygon points="201.76 386.02 183.97 396.29 180.84 374.38 198.62 364.12 201.76 386.02" style="fill:#FFC100"></polygon><polygon points="201.76 386.02 183.97 396.29 180.84 374.38 198.62 364.12 201.76 386.02" style="fill:#fff;opacity:0.85"></polygon><path d="M183.78,396.69l-3.21-22.44.14-.08,18.11-10.45L202,386.15l-.15.09Zm-2.67-22.17,3.06,21.36,17.31-10-3-21.37Z" style="fill:#FFC100"></path><polygon points="219.54 375.75 201.76 386.02 198.62 364.12 216.4 353.85 219.54 375.75" style="fill:#FFC100"></polygon><polygon points="219.54 375.75 201.76 386.02 198.62 364.12 216.4 353.85 219.54 375.75" style="fill:#fff;opacity:0.85"></polygon><path d="M201.56,386.42,198.35,364l.15-.09,18.1-10.45,3.21,22.43-.14.09Zm-2.67-22.17L202,385.62l17.32-10-3.06-21.37Z" style="fill:#FFC100"></path><polygon points="237.32 365.48 219.54 375.75 216.4 353.85 234.19 343.58 237.32 365.48" style="fill:#FFC100"></polygon><polygon points="237.32 365.48 219.54 375.75 216.4 353.85 234.19 343.58 237.32 365.48" style="fill:#fff;opacity:0.85"></polygon><path d="M219.35,376.15l-3.22-22.43.15-.09,18.1-10.45,3.22,22.44-.15.08ZM216.68,354l3.06,21.37,17.31-10L234,344Z" style="fill:#FFC100"></path><polygon points="302.19 280.61 284.4 290.88 281.27 268.98 299.05 258.71 302.19 280.61" style="fill:#FFC100"></polygon><polygon points="302.19 280.61 284.4 290.88 281.27 268.98 299.05 258.71 302.19 280.61" style="fill:#fff;opacity:0.85"></polygon><path d="M284.21,291.28,281,268.85l.14-.09,18.11-10.45,3.21,22.43-.15.09Zm-2.67-22.17,3.06,21.37,17.32-10-3.06-21.37Z" style="fill:#FFC100"></path><polygon points="319.97 270.35 302.19 280.61 299.05 258.71 316.83 248.44 319.97 270.35" style="fill:#FFC100"></polygon><polygon points="319.97 270.35 302.19 280.61 299.05 258.71 316.83 248.44 319.97 270.35" style="fill:#fff;opacity:0.85"></polygon><path d="M302,281l-3.21-22.43.15-.09L317,248l3.21,22.44-.15.08Zm-2.67-22.17,3.06,21.37,17.32-10-3.06-21.37Z" style="fill:#FFC100"></path><polygon points="337.75 260.08 319.97 270.35 316.83 248.44 334.62 238.18 337.75 260.08" style="fill:#FFC100"></polygon><polygon points="337.75 260.08 319.97 270.35 316.83 248.44 334.62 238.18 337.75 260.08" style="fill:#fff;opacity:0.85"></polygon><path d="M319.77,270.75l-3.21-22.44.15-.08,18.1-10.46L338,260.21l-.15.08Zm-2.66-22.17,3.06,21.36,17.31-10-3.06-21.37Z" style="fill:#FFC100"></path><polygon points="305.32 302.51 287.54 312.78 284.4 290.88 302.19 280.61 305.32 302.51" style="fill:#FFC100"></polygon><polygon points="305.32 302.51 287.54 312.78 284.4 290.88 302.19 280.61 305.32 302.51" style="fill:#fff;opacity:0.85"></polygon><path d="M287.34,313.18l-3.21-22.43.15-.09,18.1-10.45,3.21,22.43-.14.09ZM284.68,291l3.05,21.37,17.32-10L302,281Z" style="fill:#FFC100"></path><polygon points="323.11 292.25 305.32 302.51 302.19 280.61 319.97 270.35 323.11 292.25" style="fill:#FFC100"></polygon><polygon points="323.11 292.25 305.32 302.51 302.19 280.61 319.97 270.35 323.11 292.25" style="fill:#fff;opacity:0.85"></polygon><path d="M305.13,302.91l-3.21-22.43.14-.09,18.11-10.45,3.21,22.44-.15.08Zm-2.67-22.17,3.06,21.37,17.31-10-3.06-21.36Z" style="fill:#FFC100"></path><polygon points="340.89 281.98 323.11 292.25 319.97 270.35 337.75 260.08 340.89 281.98" style="fill:#FFC100"></polygon><polygon points="340.89 281.98 323.11 292.25 319.97 270.35 337.75 260.08 340.89 281.98" style="fill:#fff;opacity:0.85"></polygon><path d="M322.91,292.65l-3.21-22.44.14-.08L338,259.68l3.21,22.43-.15.09Zm-2.67-22.17,3.06,21.36,17.32-10-3.06-21.37Z" style="fill:#FFC100"></path><polygon points="308.46 324.41 290.68 334.68 287.54 312.78 305.32 302.51 308.46 324.41" style="fill:#FFC100"></polygon><polygon points="308.46 324.41 290.68 334.68 287.54 312.78 305.32 302.51 308.46 324.41" style="fill:#fff;opacity:0.85"></polygon><path d="M290.48,335.08l-3.21-22.43.14-.09,18.11-10.45,3.21,22.44-.15.08Zm-2.67-22.17,3.06,21.37,17.32-10-3.06-21.37Z" style="fill:#FFC100"></path><polygon points="326.24 314.15 308.46 324.41 305.32 302.51 323.11 292.25 326.24 314.15" style="fill:#FFC100"></polygon><polygon points="326.24 314.15 308.46 324.41 305.32 302.51 323.11 292.25 326.24 314.15" style="fill:#fff;opacity:0.85"></polygon><path d="M308.26,324.82l-3.21-22.44.15-.08,18.1-10.46,3.21,22.44-.14.08Zm-2.67-22.18L308.65,324,326,314l-3.06-21.36Z" style="fill:#FFC100"></path><polygon points="344.03 303.88 326.24 314.15 323.11 292.25 340.89 281.98 344.03 303.88" style="fill:#FFC100"></polygon><polygon points="344.03 303.88 326.24 314.15 323.11 292.25 340.89 281.98 344.03 303.88" style="fill:#fff;opacity:0.85"></polygon><path d="M326.05,314.55l-3.22-22.44L323,292l18.11-10.45L344.3,304l-.15.09Zm-2.67-22.17,3.06,21.37,17.31-10-3.06-21.37Z" style="fill:#FFC100"></path><polygon points="248.84 311.41 231.05 321.68 227.92 299.78 245.7 289.51 248.84 311.41" style="fill:#fafafa"></polygon><path d="M230.86,322.08l-3.22-22.43.15-.09,18.11-10.45,3.21,22.44-.15.08Zm-2.67-22.17,3.06,21.37,17.31-10-3.05-21.37Z" style="fill:#FFC100"></path><polygon points="266.62 301.15 248.84 311.41 245.7 289.51 263.48 279.25 266.62 301.15" style="fill:#fafafa"></polygon><path d="M248.64,311.82l-3.21-22.44.15-.08,18.1-10.46,3.21,22.44-.15.08ZM246,289.64,249,311l17.32-10-3.06-21.36Z" style="fill:#FFC100"></path><polygon points="284.4 290.88 266.62 301.15 263.48 279.25 281.27 268.98 284.4 290.88" style="fill:#fafafa"></polygon><path d="M266.42,301.55l-3.21-22.44.15-.08,18.1-10.45L284.68,291l-.15.09Zm-2.66-22.17,3.05,21.37,17.32-10-3.06-21.37Z" style="fill:#FFC100"></path><polygon points="251.97 333.31 234.19 343.58 231.05 321.68 248.84 311.41 251.97 333.31" style="fill:#fafafa"></polygon><path d="M234,344l-3.21-22.43.15-.08L249,311l3.21,22.44-.14.08Zm-2.67-22.17,3.06,21.37,17.32-10-3.06-21.36Z" style="fill:#FFC100"></path><polygon points="269.75 323.05 251.97 333.31 248.84 311.41 266.62 301.15 269.75 323.05" style="fill:#fafafa"></polygon><path d="M251.78,333.72l-3.22-22.44.15-.08,18.1-10.45L270,323.18l-.15.08Zm-2.67-22.17,3.06,21.36,17.31-10-3.06-21.37Z" style="fill:#FFC100"></path><polygon points="287.54 312.78 269.75 323.05 266.62 301.15 284.4 290.88 287.54 312.78" style="fill:#fafafa"></polygon><path d="M269.56,323.45,266.35,301l.14-.08,18.11-10.45,3.21,22.43-.15.09Zm-2.67-22.17L270,322.65l17.32-10-3.06-21.37Z" style="fill:#FFC100"></path><polygon points="255.11 355.22 237.32 365.48 234.19 343.58 251.97 333.31 255.11 355.22" style="fill:#fafafa"></polygon><path d="M237.13,365.88l-3.21-22.43.14-.08,18.11-10.46,3.21,22.44-.15.08Zm-2.67-22.17,3.06,21.37,17.32-10-3.06-21.36Z" style="fill:#FFC100"></path><polygon points="272.89 344.95 255.11 355.22 251.97 333.31 269.75 323.05 272.89 344.95" style="fill:#fafafa"></polygon><path d="M254.91,355.62l-3.21-22.44.15-.08L270,322.65l3.21,22.43-.14.09Zm-2.67-22.17,3.06,21.36,17.32-10-3.06-21.37Z" style="fill:#FFC100"></path><polygon points="290.68 334.68 272.89 344.95 269.75 323.05 287.54 312.78 290.68 334.68" style="fill:#fafafa"></polygon><path d="M272.7,345.35l-3.22-22.43.15-.09,18.1-10.45L291,334.81l-.15.09ZM270,323.18l3.06,21.37,17.31-10-3.06-21.37Z" style="fill:#FFC100"></path><polygon points="186.08 276.52 168.29 286.79 165.16 264.89 182.94 254.62 186.08 276.52" style="fill:#fafafa"></polygon><path d="M168.1,287.19l-3.21-22.43.14-.09,18.11-10.45,3.21,22.44-.15.08ZM165.43,265l3.06,21.37,17.32-10L182.75,255Z" style="fill:#FFC100"></path><polygon points="203.86 266.26 186.08 276.52 182.94 254.62 200.73 244.35 203.86 266.26" style="fill:#fafafa"></polygon><path d="M185.88,276.93l-3.21-22.44.15-.08L200.92,244l3.21,22.44-.14.08Zm-2.66-22.18,3.05,21.37,17.32-10-3.06-21.36Z" style="fill:#FFC100"></path><polygon points="221.65 255.99 203.86 266.26 200.73 244.35 218.51 234.09 221.65 255.99" style="fill:#fafafa"></polygon><path d="M203.67,266.66l-3.21-22.44.14-.08,18.11-10.45,3.21,22.43-.15.09ZM201,244.49l3.06,21.36,17.32-10-3.06-21.37Z" style="fill:#FFC100"></path><polygon points="189.22 298.42 171.43 308.69 168.29 286.79 186.08 276.52 189.22 298.42" style="fill:#fafafa"></polygon><path d="M171.24,309.09,168,286.66l.15-.09,18.1-10.45,3.22,22.44-.15.08Zm-2.67-22.17,3.06,21.37,17.31-10-3.06-21.36Z" style="fill:#FFC100"></path><polygon points="207 288.16 189.22 298.42 186.08 276.52 203.86 266.26 207 288.16" style="fill:#fafafa"></polygon><path d="M189,298.83l-3.21-22.44.14-.08,18.11-10.46,3.21,22.44-.15.08Zm-2.67-22.17L189.41,298l17.32-10-3.06-21.36Z" style="fill:#FFC100"></path><polygon points="224.78 277.89 207 288.16 203.86 266.26 221.65 255.99 224.78 277.89" style="fill:#fafafa"></polygon><path d="M206.8,288.56l-3.21-22.44.15-.08,18.1-10.45L225.05,278l-.14.09Zm-2.67-22.17,3.06,21.37,17.32-10-3.06-21.37Z" style="fill:#FFC100"></path><polygon points="192.35 320.32 174.57 330.59 171.43 308.69 189.22 298.42 192.35 320.32" style="fill:#fafafa"></polygon><path d="M174.37,331l-3.21-22.43.15-.09L189.41,298l3.21,22.44-.14.08Zm-2.67-22.17,3.06,21.37,17.32-10L189,298.83Z" style="fill:#FFC100"></path><polygon points="210.13 310.06 192.35 320.32 189.22 298.42 207 288.16 210.13 310.06" style="fill:#fafafa"></polygon><path d="M192.16,320.73l-3.22-22.44.15-.08,18.1-10.45,3.22,22.43-.15.08Zm-2.67-22.17,3.06,21.36,17.31-10-3.06-21.37Z" style="fill:#FFC100"></path><polygon points="227.92 299.79 210.13 310.06 207 288.16 224.78 277.89 227.92 299.79" style="fill:#fafafa"></polygon><path d="M209.94,310.46,206.73,288l.14-.08L225,277.49l3.21,22.43L228,300Zm-2.67-22.17,3.06,21.37,17.32-10-3.06-21.37Z" style="fill:#FFC100"></path><polygon points="292.78 214.92 275 225.19 271.86 203.28 289.64 193.02 292.78 214.92" style="fill:#fafafa"></polygon><path d="M274.8,225.59l-3.21-22.44.15-.08,18.1-10.45,3.21,22.43-.14.09Zm-2.67-22.17,3.06,21.36,17.32-10-3.06-21.37Z" style="fill:#FFC100"></path><polygon points="310.56 204.65 292.78 214.92 289.64 193.02 307.43 182.75 310.56 204.65" style="fill:#fafafa"></polygon><path d="M292.59,215.32l-3.22-22.43.15-.09,18.1-10.45,3.22,22.43-.15.09Zm-2.67-22.17L293,214.52l17.31-10-3.06-21.37Z" style="fill:#FFC100"></path><polygon points="328.35 194.38 310.56 204.65 307.43 182.75 325.21 172.48 328.35 194.38" style="fill:#fafafa"></polygon><path d="M310.37,205.05l-3.21-22.43.14-.09,18.11-10.45,3.21,22.44-.15.08Zm-2.67-22.17,3.06,21.37,17.32-10L325,172.88Z" style="fill:#FFC100"></path><polygon points="295.92 236.82 278.13 247.09 275 225.19 292.78 214.92 295.92 236.82" style="fill:#fafafa"></polygon><path d="M277.94,247.49l-3.21-22.44.14-.08L293,214.52,296.19,237,296,237Zm-2.67-22.17,3.06,21.37,17.31-10-3.05-21.37Z" style="fill:#FFC100"></path><polygon points="313.7 226.55 295.92 236.82 292.78 214.92 310.56 204.65 313.7 226.55" style="fill:#fafafa"></polygon><path d="M295.72,237.22l-3.21-22.43.15-.09,18.1-10.45L314,226.68l-.14.09Zm-2.67-22.17,3.06,21.37,17.32-10-3.06-21.37Z" style="fill:#FFC100"></path><polygon points="331.48 216.28 313.7 226.55 310.56 204.65 328.35 194.38 331.48 216.28" style="fill:#fafafa"></polygon><path d="M313.51,227l-3.22-22.43.15-.09L328.54,194l3.22,22.44-.15.08Zm-2.67-22.17,3.06,21.37,17.31-10-3.06-21.36Z" style="fill:#FFC100"></path><polygon points="299.05 258.72 281.27 268.99 278.13 247.09 295.92 236.82 299.05 258.72" style="fill:#fafafa"></polygon><path d="M281.07,269.39,277.86,247l.15-.09,18.1-10.45,3.21,22.43-.14.09Zm-2.67-22.17,3.06,21.37,17.32-10-3.06-21.37Z" style="fill:#FFC100"></path><polygon points="316.84 248.45 299.05 258.72 295.92 236.82 313.7 226.55 316.84 248.45" style="fill:#fafafa"></polygon><path d="M298.86,259.12l-3.22-22.43.15-.09,18.11-10.45,3.21,22.44-.15.08ZM296.19,237l3.06,21.37,17.31-10L313.51,227Z" style="fill:#FFC100"></path><polygon points="334.62 238.19 316.84 248.45 313.7 226.55 331.48 216.28 334.62 238.19" style="fill:#fafafa"></polygon><path d="M316.64,248.85l-3.21-22.43.15-.08,18.1-10.46,3.21,22.44-.15.08ZM314,226.68,317,248.05l17.32-10-3.06-21.36Z" style="fill:#FFC100"></path><path d="M206.82,211.19a.25.25,0,0,1-.25,0,.29.29,0,0,1-.14-.23l-.3-2.09-3.86,2.23a.23.23,0,0,1-.25,0,.27.27,0,0,1-.14-.23l-.08-.54a.92.92,0,0,1,0-.28,1.15,1.15,0,0,1,.09-.34l3-8.51a2.4,2.4,0,0,1,.17-.39.85.85,0,0,1,.25-.25l.5-.28a.23.23,0,0,1,.25,0,.32.32,0,0,1,.14.23l.9,6.33,1.06-.61a.25.25,0,0,1,.25,0,.27.27,0,0,1,.14.23l.08.54a.68.68,0,0,1-.27.61l-1.06.61.3,2.09a.6.6,0,0,1-.06.34.62.62,0,0,1-.21.26Zm-.88-3.67-.62-4.27-2,5.81Z" style="fill:#455a64"></path><path d="M225.1,200.19a.56.56,0,0,1-.06.35.53.53,0,0,1-.21.25l-.51.29a.25.25,0,0,1-.25,0,.34.34,0,0,1-.14-.23l-1.19-8.35-1.73,3a.45.45,0,0,1-.23.24.25.25,0,0,1-.24,0l-.37-.3a.33.33,0,0,1-.11-.26.76.76,0,0,1,.09-.35l2.28-4a.85.85,0,0,1,.18-.22l.2-.13.5-.29a.23.23,0,0,1,.25,0,.29.29,0,0,1,.14.23Z" style="fill:#455a64"></path><path d="M207.44,226.92a1.9,1.9,0,0,1,.2-.18,1.76,1.76,0,0,1,.23-.15,3.18,3.18,0,0,1,1.31-.46,2,2,0,0,1,1.95,1,3.22,3.22,0,0,1,.44,1.3,4.61,4.61,0,0,1,0,1.57,5.62,5.62,0,0,1-.5,1.55,5.74,5.74,0,0,1-.89,1.35,5.23,5.23,0,0,1-1.24,1,3.3,3.3,0,0,1-1.31.45,2.06,2.06,0,0,1-1.12-.19,2,2,0,0,1-.83-.77,3.49,3.49,0,0,1-.45-1.31,4.15,4.15,0,0,1,0-.86,4.6,4.6,0,0,1,.11-.83c.05-.27.12-.54.19-.8s.16-.52.24-.76l1.66-5.35.11-.27a.44.44,0,0,1,.23-.26l.7-.4a.15.15,0,0,1,.19,0,.3.3,0,0,1,.1.2.28.28,0,0,1,0,.13l0,.1Zm-1.07,4.48a2.25,2.25,0,0,0,.27.78,1.33,1.33,0,0,0,.5.5,1.28,1.28,0,0,0,.71.14,2.06,2.06,0,0,0,.87-.3,3.08,3.08,0,0,0,.81-.67,3.28,3.28,0,0,0,.56-.88,3.74,3.74,0,0,0,.3-.95,3.38,3.38,0,0,0,0-1,2.25,2.25,0,0,0-.27-.78,1.41,1.41,0,0,0-.5-.5,1.26,1.26,0,0,0-.71-.14,2.06,2.06,0,0,0-.87.3,2.94,2.94,0,0,0-.81.68,3.68,3.68,0,0,0-.56.87,4.11,4.11,0,0,0-.3,1A3.31,3.31,0,0,0,206.37,231.4Z" style="fill:#455a64"></path><path d="M192,232a.23.23,0,0,1,.25,0,.31.31,0,0,1,.14.23l.08.55a1.6,1.6,0,0,1,0,.31c0,.11,0,.24,0,.37L191,243.69a1.92,1.92,0,0,1-.09.32.47.47,0,0,1-.21.25l-.57.32a.22.22,0,0,1-.22,0,.29.29,0,0,1-.13-.21v-.07a1.05,1.05,0,0,1,0-.13l1.49-10.28-4,2.33a.23.23,0,0,1-.25,0,.27.27,0,0,1-.14-.23l-.08-.54a.64.64,0,0,1,.06-.35.48.48,0,0,1,.21-.25Z" style="fill:#455a64"></path><path d="M164.6,208.88a2,2,0,0,0,.25.39.65.65,0,0,0,.39.24,1.39,1.39,0,0,0,.63,0,4,4,0,0,0,1-.42,4.52,4.52,0,0,0,.71-.53,3.46,3.46,0,0,0,.55-.71,3.1,3.1,0,0,0,.32-.83,2.51,2.51,0,0,0,0-1,1.53,1.53,0,0,0-.26-.74.79.79,0,0,0-.48-.31,1.31,1.31,0,0,0-.64,0,3.31,3.31,0,0,0-.76.34l-1,.59a.23.23,0,0,1-.25,0,.27.27,0,0,1-.14-.23l-.08-.54a.72.72,0,0,1,0-.29l.1-.28,1.79-4.22-3.54,2.05a.25.25,0,0,1-.25,0,.29.29,0,0,1-.14-.23l-.08-.54a.72.72,0,0,1,.06-.35.64.64,0,0,1,.22-.26l4.84-2.79a.23.23,0,0,1,.25,0,.28.28,0,0,1,.14.23l.08.55a.79.79,0,0,1,0,.3,1.81,1.81,0,0,1-.13.34l-1.76,4.15a3.31,3.31,0,0,1,1.16-.41,1.61,1.61,0,0,1,1,.11,1.67,1.67,0,0,1,.71.64,2.88,2.88,0,0,1,.38,1.17,4.31,4.31,0,0,1,0,1.52,5.38,5.38,0,0,1-.51,1.41,5.76,5.76,0,0,1-.88,1.21,5.23,5.23,0,0,1-1.16.91,4.7,4.7,0,0,1-1.45.59,2.12,2.12,0,0,1-1.08-.06,1.42,1.42,0,0,1-.7-.53,2.13,2.13,0,0,1-.34-.86.48.48,0,0,1,.05-.28.51.51,0,0,1,.17-.21l.57-.32a.25.25,0,0,1,.23,0A.29.29,0,0,1,164.6,208.88Z" style="fill:#455a64"></path><path d="M270.2,261.81a2.18,2.18,0,0,1,.21-.17,2,2,0,0,1,.22-.16A3.34,3.34,0,0,1,272,261a1.94,1.94,0,0,1,1.11.19,2.12,2.12,0,0,1,.84.77,3.32,3.32,0,0,1,.44,1.31,4.88,4.88,0,0,1,0,1.57,5.91,5.91,0,0,1-.5,1.54,6.17,6.17,0,0,1-.9,1.36,4.74,4.74,0,0,1-1.23,1,3.23,3.23,0,0,1-1.31.46,2.06,2.06,0,0,1-1.12-.19,2.13,2.13,0,0,1-.83-.78A3.08,3.08,0,0,1,268,267a5,5,0,0,1,0-.86,7.22,7.22,0,0,1,.11-.83c.06-.28.12-.54.2-.81l.24-.76,1.65-5.35a1.86,1.86,0,0,0,.11-.27.55.55,0,0,1,.23-.25l.7-.41a.16.16,0,0,1,.19,0,.3.3,0,0,1,.11.2v.13a.3.3,0,0,1,0,.1Zm-1.06,4.49a2.05,2.05,0,0,0,.26.78,1.52,1.52,0,0,0,.51.5,1.31,1.31,0,0,0,.7.14,2.06,2.06,0,0,0,.87-.3,2.84,2.84,0,0,0,.82-.68,3.68,3.68,0,0,0,.56-.87,4.11,4.11,0,0,0,.3-1,3,3,0,0,0,0-.94,2.05,2.05,0,0,0-.26-.78,1.36,1.36,0,0,0-.51-.5,1.23,1.23,0,0,0-.7-.14,2.06,2.06,0,0,0-.87.3,3.3,3.3,0,0,0-.82.67,3.68,3.68,0,0,0-.56.87,3.91,3.91,0,0,0-.29,1A3,3,0,0,0,269.14,266.3Z" style="fill:#455a64"></path><path d="M266.93,223.37a.7.7,0,0,1-.06.34.58.58,0,0,1-.22.26l-.5.29a.25.25,0,0,1-.25,0,.27.27,0,0,1-.14-.23l-1.2-8.34-1.72,3a.44.44,0,0,1-.24.23.25.25,0,0,1-.24,0l-.36-.3a.33.33,0,0,1-.11-.26A.73.73,0,0,1,262,218l2.27-4a.6.6,0,0,1,.19-.22l.19-.13.51-.29a.25.25,0,0,1,.25,0,.3.3,0,0,1,.13.23Z" style="fill:#455a64"></path><path d="M235.81,285.39l-.17.13-.16.1a3.42,3.42,0,0,1-1.18.42,2,2,0,0,1-1.08-.12,2,2,0,0,1-.85-.72,3.24,3.24,0,0,1-.49-1.38,4.56,4.56,0,0,1,.05-1.56,6.16,6.16,0,0,1,.5-1.52,5.89,5.89,0,0,1,.88-1.31,4.49,4.49,0,0,1,1.15-1,3.25,3.25,0,0,1,1.32-.47,1.83,1.83,0,0,1,1.08.19,2,2,0,0,1,.78.77,3.75,3.75,0,0,1,.42,1.3,3.71,3.71,0,0,1,0,.82c0,.3-.08.59-.14.89s-.14.6-.22.88-.16.56-.24.79L235.82,289l-.11.26a.48.48,0,0,1-.23.26l-.7.4a.15.15,0,0,1-.19,0,.26.26,0,0,1-.1-.2.28.28,0,0,1,0-.13l0-.1Zm1.08-4.46a2.23,2.23,0,0,0-.27-.79,1.25,1.25,0,0,0-.49-.48,1.17,1.17,0,0,0-.68-.11,2.14,2.14,0,0,0-.8.28,3,3,0,0,0-.75.62,3.18,3.18,0,0,0-.54.81,3.25,3.25,0,0,0-.29.93,3.1,3.1,0,0,0,0,1,2.15,2.15,0,0,0,.27.8,1.22,1.22,0,0,0,.49.47,1.24,1.24,0,0,0,.67.12,2.1,2.1,0,0,0,.81-.29,3.09,3.09,0,0,0,.75-.61,3.42,3.42,0,0,0,.54-.82,3.29,3.29,0,0,0,.29-.92A3.15,3.15,0,0,0,236.89,280.93Z" style="fill:#455a64"></path><path d="M227.38,243.66a1.1,1.1,0,0,0,.86.72,2,2,0,0,0,1.31-.3,3.77,3.77,0,0,0,.75-.58,3.53,3.53,0,0,0,.56-.77,3.17,3.17,0,0,0,.33-2,2,2,0,0,0-.29-.87,1.09,1.09,0,0,0-.51-.45,1.19,1.19,0,0,0-.68-.05,2.71,2.71,0,0,0-.78.3,2.84,2.84,0,0,0-.73.56,4.44,4.44,0,0,0-.42.54l-.28.45a.78.78,0,0,1-.3.32l-.63.36a.18.18,0,0,1-.21,0,.21.21,0,0,1-.11-.18l-.35-5.27a.61.61,0,0,1,0-.35.55.55,0,0,1,.22-.25l4.34-2.51a.25.25,0,0,1,.25,0,.33.33,0,0,1,.14.23l.08.55a.74.74,0,0,1-.06.35.54.54,0,0,1-.22.25l-3.57,2.07.17,2.73a5.36,5.36,0,0,1,.54-.56,4.76,4.76,0,0,1,.89-.64,3.47,3.47,0,0,1,1.25-.46,2.06,2.06,0,0,1,1.09.13,1.89,1.89,0,0,1,.83.74,3.2,3.2,0,0,1,.46,1.35,5,5,0,0,1,0,1.63,5.6,5.6,0,0,1-.51,1.51,5.74,5.74,0,0,1-.89,1.28,5.25,5.25,0,0,1-1.18.94,3.62,3.62,0,0,1-1.21.46,2.26,2.26,0,0,1-1.07,0,1.76,1.76,0,0,1-.81-.54,2,2,0,0,1-.44-1,.47.47,0,0,1,.05-.28.41.41,0,0,1,.17-.21l.57-.33a.24.24,0,0,1,.2,0A.28.28,0,0,1,227.38,243.66Z" style="fill:#455a64"></path><path d="M191.81,264.41a1.58,1.58,0,0,0,.24.39.86.86,0,0,0,.39.24,1.38,1.38,0,0,0,.63,0,3.83,3.83,0,0,0,1-.42,4,4,0,0,0,.71-.54,2.89,2.89,0,0,0,.55-.7,3.06,3.06,0,0,0,.33-.84,2.45,2.45,0,0,0,0-.94,1.64,1.64,0,0,0-.27-.74.76.76,0,0,0-.47-.31,1.29,1.29,0,0,0-.64,0,4,4,0,0,0-.77.35l-1,.59a.25.25,0,0,1-.25,0,.29.29,0,0,1-.14-.23l-.07-.55a.5.5,0,0,1,0-.29,1.69,1.69,0,0,1,.1-.27l1.79-4.22-3.54,2a.23.23,0,0,1-.25,0,.27.27,0,0,1-.14-.23l-.08-.55a.53.53,0,0,1,.06-.34.51.51,0,0,1,.21-.26l4.85-2.8a.25.25,0,0,1,.25,0,.29.29,0,0,1,.14.23l.08.55a.81.81,0,0,1,0,.3,2.79,2.79,0,0,1-.12.34l-1.76,4.15a3.28,3.28,0,0,1,1.16-.42,1.69,1.69,0,0,1,1,.12,1.64,1.64,0,0,1,.7.64,3,3,0,0,1,.39,1.17,4.31,4.31,0,0,1,0,1.52,5.38,5.38,0,0,1-.51,1.41,5.76,5.76,0,0,1-.88,1.21,5.48,5.48,0,0,1-1.15.91,4.74,4.74,0,0,1-1.46.59,2.07,2.07,0,0,1-1.07-.06,1.39,1.39,0,0,1-.7-.53,2.14,2.14,0,0,1-.35-.86.58.58,0,0,1,0-.28.53.53,0,0,1,.18-.21l.56-.32a.22.22,0,0,1,.23,0A.36.36,0,0,1,191.81,264.41Z" style="fill:#455a64"></path><path d="M246.74,256a4.25,4.25,0,0,1,.11-1.61,5.65,5.65,0,0,1,.72-1.61,1.52,1.52,0,0,1-.84-.57,2.32,2.32,0,0,1-.44-1.11,4,4,0,0,1,.05-1.28,4.77,4.77,0,0,1,.47-1.29,5.28,5.28,0,0,1,.81-1.16,4.48,4.48,0,0,1,1.1-.89,3,3,0,0,1,1.17-.42,1.93,1.93,0,0,1,1,.11,1.6,1.6,0,0,1,.74.6,2.31,2.31,0,0,1,.38,1,3.62,3.62,0,0,1-.08,1.42,5.36,5.36,0,0,1-.57,1.39,1.74,1.74,0,0,1,1,.59,2.38,2.38,0,0,1,.53,1.25,3.88,3.88,0,0,1-.06,1.35,5,5,0,0,1-.49,1.38,5.9,5.9,0,0,1-.88,1.25,5.12,5.12,0,0,1-1.21,1,3.24,3.24,0,0,1-1.28.47,2.09,2.09,0,0,1-1.07-.12,1.65,1.65,0,0,1-.78-.63A2.58,2.58,0,0,1,246.74,256Zm.72-5.58a1.22,1.22,0,0,0,.22.56,1,1,0,0,0,.43.3,1.38,1.38,0,0,0,.58,0,1.9,1.9,0,0,0,.69-.26,2.81,2.81,0,0,0,.65-.51,4.1,4.1,0,0,0,.49-.65,2.79,2.79,0,0,0,.29-.72,1.85,1.85,0,0,0,0-.7,1.05,1.05,0,0,0-.22-.55.86.86,0,0,0-.42-.31,1.32,1.32,0,0,0-.6,0,2,2,0,0,0-.68.25,2.7,2.7,0,0,0-.65.52,3.31,3.31,0,0,0-.48.65,2.31,2.31,0,0,0-.29.71A1.86,1.86,0,0,0,247.46,250.43Zm.45,4.91a1.39,1.39,0,0,0,.24.62,1,1,0,0,0,.48.34,1.3,1.3,0,0,0,.66,0,2.38,2.38,0,0,0,.8-.31,3.31,3.31,0,0,0,.75-.59,3.16,3.16,0,0,0,.55-.74,3.12,3.12,0,0,0,.32-.79,2.35,2.35,0,0,0,0-.79,1.39,1.39,0,0,0-.24-.62,1,1,0,0,0-.48-.34,1.3,1.3,0,0,0-.66,0,2.68,2.68,0,0,0-.8.31,3.16,3.16,0,0,0-.76.59,3.84,3.84,0,0,0-.55.74,3.33,3.33,0,0,0-.31.79A2.35,2.35,0,0,0,247.91,255.34Z" style="fill:#455a64"></path><path d="M289.93,278.93a2,2,0,0,0,.25.39.74.74,0,0,0,.39.24,1.38,1.38,0,0,0,.63,0,4,4,0,0,0,1-.42,4,4,0,0,0,.71-.54,2.89,2.89,0,0,0,.55-.7,2.76,2.76,0,0,0,.32-.84,2.66,2.66,0,0,0,0-.94,1.64,1.64,0,0,0-.27-.74A.75.75,0,0,0,293,275a1.2,1.2,0,0,0-.64,0,3.51,3.51,0,0,0-.76.34l-1,.59a.25.25,0,0,1-.25,0,.29.29,0,0,1-.14-.23l-.08-.55a.69.69,0,0,1,0-.28l.1-.28,1.8-4.22-3.55,2a.25.25,0,0,1-.25,0,.32.32,0,0,1-.14-.23l-.07-.55a.59.59,0,0,1,.05-.34.58.58,0,0,1,.22-.26l4.84-2.8a.25.25,0,0,1,.25,0,.27.27,0,0,1,.14.23l.08.55a.79.79,0,0,1,0,.3,2.79,2.79,0,0,1-.12.34l-1.77,4.15a3.56,3.56,0,0,1,1.16-.42,1.69,1.69,0,0,1,1,.12,1.67,1.67,0,0,1,.71.64,2.83,2.83,0,0,1,.38,1.17,4.31,4.31,0,0,1,0,1.52,5.38,5.38,0,0,1-.51,1.41,5.76,5.76,0,0,1-.88,1.21,5,5,0,0,1-1.16.91,4.41,4.41,0,0,1-1.45.58,2,2,0,0,1-1.07-.05,1.46,1.46,0,0,1-.71-.53,2.13,2.13,0,0,1-.34-.86.48.48,0,0,1,.05-.28.51.51,0,0,1,.17-.21l.57-.32a.25.25,0,0,1,.23,0A.29.29,0,0,1,289.93,278.93Z" style="fill:#455a64"></path><path d="M243.34,331.73a.23.23,0,0,1-.25,0,.32.32,0,0,1-.14-.23l-.3-2.09-3.86,2.23a.23.23,0,0,1-.25,0,.29.29,0,0,1-.14-.23l-.08-.55a.85.85,0,0,1,0-.27,2.14,2.14,0,0,1,.09-.34l3-8.51a1.76,1.76,0,0,1,.18-.39.6.6,0,0,1,.25-.25l.49-.29a.25.25,0,0,1,.25,0,.29.29,0,0,1,.14.23l.91,6.33,1.05-.61a.23.23,0,0,1,.25,0,.27.27,0,0,1,.14.23l.08.54a.63.63,0,0,1-.05.35.55.55,0,0,1-.22.25l-1.06.61.3,2.09a.55.55,0,0,1-.06.35.48.48,0,0,1-.21.25Zm-.88-3.66-.61-4.28-2.06,5.82Z" style="fill:#455a64"></path><path d="M275.41,310.45a1.67,1.67,0,0,0,.25.38.65.65,0,0,0,.39.24,1.37,1.37,0,0,0,.63,0,4,4,0,0,0,1-.42,3.64,3.64,0,0,0,.7-.54,3.13,3.13,0,0,0,.56-.7,3,3,0,0,0,.32-.84,2.45,2.45,0,0,0,0-.94,1.53,1.53,0,0,0-.26-.74.81.81,0,0,0-.48-.32,1.31,1.31,0,0,0-.64.05,3.8,3.8,0,0,0-.76.34l-1,.59a.23.23,0,0,1-.25,0,.27.27,0,0,1-.14-.23l-.08-.55a.74.74,0,0,1,0-.29c0-.1.07-.19.1-.28l1.79-4.21L274,304a.23.23,0,0,1-.25,0,.31.31,0,0,1-.14-.23l-.08-.55a.7.7,0,0,1,.06-.34.52.52,0,0,1,.22-.26l4.84-2.8a.25.25,0,0,1,.25,0,.27.27,0,0,1,.14.23l.08.54a.76.76,0,0,1,0,.3,1.66,1.66,0,0,1-.13.35l-1.76,4.15a3.35,3.35,0,0,1,1.16-.42,1.69,1.69,0,0,1,1,.12,1.67,1.67,0,0,1,.71.64,3,3,0,0,1,.38,1.16,4.13,4.13,0,0,1-.05,1.53,4.75,4.75,0,0,1-.51,1.41,5.13,5.13,0,0,1-.88,1.21,5.24,5.24,0,0,1-1.15.91,4.64,4.64,0,0,1-1.45.58,2,2,0,0,1-1.08-.05,1.43,1.43,0,0,1-.7-.53,2.13,2.13,0,0,1-.34-.86.48.48,0,0,1,.05-.28.41.41,0,0,1,.17-.21l.57-.33a.22.22,0,0,1,.23,0A.26.26,0,0,1,275.41,310.45Z" style="fill:#455a64"></path><path d="M298.89,181.77a.23.23,0,0,1-.25,0,.27.27,0,0,1-.14-.23l-.3-2.09-3.86,2.23a.23.23,0,0,1-.25,0,.27.27,0,0,1-.14-.23l-.08-.54a1.3,1.3,0,0,1,0-.28,1.46,1.46,0,0,1,.1-.34l3-8.51a1.76,1.76,0,0,1,.18-.39.67.67,0,0,1,.25-.25l.49-.29a.25.25,0,0,1,.25,0,.27.27,0,0,1,.14.23l.91,6.33,1.06-.61a.23.23,0,0,1,.25,0,.29.29,0,0,1,.14.23l.08.54a.74.74,0,0,1-.06.35.5.5,0,0,1-.22.25l-1.06.61.3,2.09a.61.61,0,0,1-.05.35.55.55,0,0,1-.22.25Zm-.89-3.66-.61-4.28-2.06,5.82Z" style="fill:#455a64"></path><path d="M277.61,158.84a.25.25,0,0,1,.25,0,.28.28,0,0,1,.14.23l.08.55a1,1,0,0,1,0,.31,2.83,2.83,0,0,1-.06.37l-1.48,10.26a1.19,1.19,0,0,1-.1.32.47.47,0,0,1-.21.25l-.56.32a.22.22,0,0,1-.23,0,.25.25,0,0,1-.12-.21v-.07a.72.72,0,0,1,0-.13l1.5-10.28-4,2.33a.23.23,0,0,1-.25,0,.32.32,0,0,1-.14-.23l-.07-.54a.63.63,0,0,1,.05-.35.6.6,0,0,1,.22-.25Z" style="fill:#455a64"></path><path d="M309.29,122.08a5,5,0,0,0,.43-1.15,3,3,0,0,0,0-1.21,1.57,1.57,0,0,0-.57-1.12c-.31-.21-.74-.16-1.29.16a2.7,2.7,0,0,0-.71.57,2.9,2.9,0,0,0-.44.71,3,3,0,0,0-.23.79,5.58,5.58,0,0,0-.09.81.8.8,0,0,1-.09.33.65.65,0,0,1-.18.21l-.57.32a.17.17,0,0,1-.2,0c-.07,0-.1-.09-.12-.19a4.49,4.49,0,0,1,.05-1.25,5.84,5.84,0,0,1,.42-1.37,5.65,5.65,0,0,1,.79-1.3,4.25,4.25,0,0,1,1.18-1,3,3,0,0,1,1.23-.43,1.66,1.66,0,0,1,1,.2,1.84,1.84,0,0,1,.67.73,3.77,3.77,0,0,1,.36,1.16,4.8,4.8,0,0,1,.06.91,4.43,4.43,0,0,1-.09.87,5.3,5.3,0,0,1-.27.89,9,9,0,0,1-.44,1l-2.29,4.73,3.76-2.17a.23.23,0,0,1,.25,0,.28.28,0,0,1,.14.23l.08.55a.52.52,0,0,1-.06.34.51.51,0,0,1-.21.26l-5.3,3.06a.25.25,0,0,1-.25,0,.3.3,0,0,1-.14-.24l-.08-.54a.74.74,0,0,1,0-.33,2.22,2.22,0,0,1,.17-.4Z" style="fill:#455a64"></path><path d="M281.39,191.44a.6.6,0,0,1-.06.34.62.62,0,0,1-.21.26l-.51.29a.25.25,0,0,1-.25,0,.29.29,0,0,1-.14-.23L279,183.77l-1.73,3a.43.43,0,0,1-.23.23.27.27,0,0,1-.25,0l-.36-.3a.34.34,0,0,1-.11-.27.72.72,0,0,1,.09-.34l2.28-4a.54.54,0,0,1,.18-.21,1.07,1.07,0,0,1,.19-.13l.51-.3a.25.25,0,0,1,.25,0,.29.29,0,0,1,.14.23Z" style="fill:#455a64"></path><path d="M256.69,179.41a1.1,1.1,0,0,0,.86.73,2,2,0,0,0,1.31-.31,3.44,3.44,0,0,0,.74-.58,3.22,3.22,0,0,0,.57-.76,3.26,3.26,0,0,0,.32-.94,3.07,3.07,0,0,0,0-1.05,2.17,2.17,0,0,0-.29-.87,1.09,1.09,0,0,0-.51-.45,1.29,1.29,0,0,0-.68-.05,2.45,2.45,0,0,0-.79.31,2.73,2.73,0,0,0-.72.56,5.35,5.35,0,0,0-.42.53l-.28.46a.77.77,0,0,1-.31.31l-.62.37a.22.22,0,0,1-.21,0,.25.25,0,0,1-.11-.19l-.36-5.27a.74.74,0,0,1,.06-.35.54.54,0,0,1,.22-.25l4.34-2.51a.25.25,0,0,1,.25,0,.29.29,0,0,1,.14.23l.08.54a.72.72,0,0,1-.06.35.5.5,0,0,1-.22.25l-3.58,2.07.18,2.74a4.53,4.53,0,0,1,.54-.57,4.76,4.76,0,0,1,.89-.64,3.67,3.67,0,0,1,1.24-.45,1.86,1.86,0,0,1,1.93.86,3.25,3.25,0,0,1,.46,1.35,5,5,0,0,1,0,1.63,5.52,5.52,0,0,1-1.41,2.79,4.94,4.94,0,0,1-1.17.94,3.88,3.88,0,0,1-1.21.47,2.38,2.38,0,0,1-1.07,0,1.69,1.69,0,0,1-.81-.53,2.08,2.08,0,0,1-.44-1,.48.48,0,0,1,.05-.28.41.41,0,0,1,.17-.21l.57-.33a.27.27,0,0,1,.2,0A.28.28,0,0,1,256.69,179.41Z" style="fill:#455a64"></path><path d="M196.94,308.5a4.25,4.25,0,0,1,.11-1.61,5.59,5.59,0,0,1,.72-1.6,1.59,1.59,0,0,1-.84-.58,2.32,2.32,0,0,1-.44-1.11,4,4,0,0,1,0-1.28A5.28,5.28,0,0,1,197,301a5,5,0,0,1,.81-1.15,4.52,4.52,0,0,1,1.1-.9,3.32,3.32,0,0,1,1.17-.42,2.09,2.09,0,0,1,1,.11,1.63,1.63,0,0,1,.73.6,2.31,2.31,0,0,1,.38,1,3.58,3.58,0,0,1-.08,1.41,5.23,5.23,0,0,1-.57,1.39,1.8,1.8,0,0,1,1,.59,2.42,2.42,0,0,1,.53,1.25,3.92,3.92,0,0,1-.06,1.36,5.18,5.18,0,0,1-.49,1.38,5.84,5.84,0,0,1-.88,1.24,5.16,5.16,0,0,1-1.21,1,3.39,3.39,0,0,1-1.27.46,2,2,0,0,1-1.08-.11,1.67,1.67,0,0,1-.78-.64A2.58,2.58,0,0,1,196.94,308.5Zm.72-5.57a1.18,1.18,0,0,0,.22.55.85.85,0,0,0,.43.3,1.24,1.24,0,0,0,.58,0,2.07,2.07,0,0,0,.69-.25,3.16,3.16,0,0,0,.65-.52,3,3,0,0,0,.49-.65,2.87,2.87,0,0,0,.29-.71,1.91,1.91,0,0,0,0-.71,1.17,1.17,0,0,0-.21-.55.85.85,0,0,0-.43-.3,1.16,1.16,0,0,0-.59,0,1.78,1.78,0,0,0-.69.26,2.66,2.66,0,0,0-.65.51,3.31,3.31,0,0,0-.48.65,2.42,2.42,0,0,0-.29.71A1.92,1.92,0,0,0,197.66,302.93Zm.45,4.9a1.39,1.39,0,0,0,.24.62,1,1,0,0,0,.48.34,1.3,1.3,0,0,0,.66,0,2.57,2.57,0,0,0,.8-.3,3.35,3.35,0,0,0,.75-.6,3.47,3.47,0,0,0,.56-.73,3.57,3.57,0,0,0,.31-.8,2.3,2.3,0,0,0,0-.78,1.43,1.43,0,0,0-.24-.63,1.09,1.09,0,0,0-.48-.34,1.43,1.43,0,0,0-.66,0,2.4,2.4,0,0,0-.8.3,3.2,3.2,0,0,0-.76.6,3.36,3.36,0,0,0-.54.73,3.12,3.12,0,0,0-.32.79A2.37,2.37,0,0,0,198.11,307.83Z" style="fill:#455a64"></path><path d="M217.84,320.06a4.25,4.25,0,0,1,.11-1.61,5.65,5.65,0,0,1,.72-1.61,1.57,1.57,0,0,1-.84-.57,2.32,2.32,0,0,1-.44-1.11,3.71,3.71,0,0,1,.05-1.28,5.24,5.24,0,0,1,.46-1.29,5.69,5.69,0,0,1,.82-1.16,4.48,4.48,0,0,1,1.1-.89,3,3,0,0,1,1.17-.42,1.93,1.93,0,0,1,1,.11,1.6,1.6,0,0,1,.74.6,2.31,2.31,0,0,1,.38,1,3.58,3.58,0,0,1-.08,1.41,5.36,5.36,0,0,1-.57,1.39,1.83,1.83,0,0,1,1,.59,2.38,2.38,0,0,1,.53,1.25,3.94,3.94,0,0,1-.06,1.36,5,5,0,0,1-.49,1.37,6.28,6.28,0,0,1-.88,1.25,5.38,5.38,0,0,1-1.21,1,3.37,3.37,0,0,1-1.28.46,2.09,2.09,0,0,1-1.07-.11,1.74,1.74,0,0,1-.78-.64A2.45,2.45,0,0,1,217.84,320.06Zm.72-5.58a1.22,1.22,0,0,0,.22.56.94.94,0,0,0,.43.3,1.38,1.38,0,0,0,.58,0,1.9,1.9,0,0,0,.69-.26,3.1,3.1,0,0,0,.65-.51,4.1,4.1,0,0,0,.49-.65,2.45,2.45,0,0,0,.28-.72,1.86,1.86,0,0,0,0-.7,1.05,1.05,0,0,0-.22-.55.77.77,0,0,0-.43-.3,1.14,1.14,0,0,0-.59,0,2,2,0,0,0-.68.25,2.7,2.7,0,0,0-.65.52,3.82,3.82,0,0,0-.49.65,2.69,2.69,0,0,0-.28.71A1.87,1.87,0,0,0,218.56,314.48Zm.45,4.91a1.39,1.39,0,0,0,.24.62,1,1,0,0,0,.48.34,1.3,1.3,0,0,0,.66,0,2.38,2.38,0,0,0,.8-.31,3.31,3.31,0,0,0,.75-.59,3.16,3.16,0,0,0,.55-.74,3.12,3.12,0,0,0,.32-.79,2.35,2.35,0,0,0,0-.79,1.29,1.29,0,0,0-.25-.62.94.94,0,0,0-.47-.34,1.3,1.3,0,0,0-.66,0,2.68,2.68,0,0,0-.8.31,3.16,3.16,0,0,0-.76.59,3.84,3.84,0,0,0-.55.74,3.09,3.09,0,0,0-.31.79A2.13,2.13,0,0,0,219,319.39Z" style="fill:#455a64"></path><path d="M204.72,330.9a.25.25,0,0,1-.26,0,.28.28,0,0,1-.13-.23l-.3-2.09-3.87,2.23a.25.25,0,0,1-.25,0,.32.32,0,0,1-.14-.23l-.07-.55a1.2,1.2,0,0,1,0-.27,2.14,2.14,0,0,1,.09-.34l3-8.51a1.76,1.76,0,0,1,.18-.39.67.67,0,0,1,.25-.25l.49-.29a.25.25,0,0,1,.25,0,.27.27,0,0,1,.14.23l.91,6.33,1.06-.61a.23.23,0,0,1,.25,0,.3.3,0,0,1,.14.23l.07.54a.63.63,0,0,1-.05.35.55.55,0,0,1-.22.25l-1.06.61.3,2.09a.63.63,0,0,1-.05.35.6.6,0,0,1-.22.25Zm-.89-3.67-.61-4.27-2.06,5.81Z" style="fill:#455a64"></path><path d="M224.2,338.85a.83.83,0,0,1-.17.12l-.16.1a3.27,3.27,0,0,1-1.17.43,1.89,1.89,0,0,1-1.94-.84,3.24,3.24,0,0,1-.49-1.38,4.83,4.83,0,0,1,0-1.56,6.16,6.16,0,0,1,1.38-2.84,4.66,4.66,0,0,1,1.15-.95,3.15,3.15,0,0,1,1.32-.47,1.83,1.83,0,0,1,1.08.19,2,2,0,0,1,.78.77,3.75,3.75,0,0,1,.42,1.3,3.7,3.7,0,0,1,0,.82c0,.3-.08.59-.14.89s-.14.59-.22.88-.16.55-.23.79l-1.66,5.35-.11.27a.48.48,0,0,1-.23.26l-.7.4a.15.15,0,0,1-.19,0,.25.25,0,0,1-.1-.19.28.28,0,0,1,0-.13l0-.1Zm1.08-4.46a2,2,0,0,0-.27-.79,1.25,1.25,0,0,0-.49-.48,1.17,1.17,0,0,0-.68-.11,2.14,2.14,0,0,0-.8.28,3,3,0,0,0-.75.62,3.18,3.18,0,0,0-.54.81,3.25,3.25,0,0,0-.29.93,3.1,3.1,0,0,0,0,1,2.15,2.15,0,0,0,.27.8,1.22,1.22,0,0,0,.49.47,1.15,1.15,0,0,0,.67.11,1.92,1.92,0,0,0,.81-.28,2.91,2.91,0,0,0,.75-.61,3.42,3.42,0,0,0,.54-.82,3.67,3.67,0,0,0,.3-.92A3.15,3.15,0,0,0,225.28,334.39Z" style="fill:#455a64"></path><path d="M192.3,380.51a4.82,4.82,0,0,0,.43-1.15,3,3,0,0,0,0-1.21,1.59,1.59,0,0,0-.57-1.12c-.31-.21-.74-.16-1.28.16a2.58,2.58,0,0,0-.71.57,2.83,2.83,0,0,0-.45.71,3.11,3.11,0,0,0-.23.79,5.58,5.58,0,0,0-.09.81.9.9,0,0,1-.09.34.72.72,0,0,1-.18.2l-.57.32a.19.19,0,0,1-.2,0,.29.29,0,0,1-.12-.19,4.55,4.55,0,0,1,0-1.26,5.84,5.84,0,0,1,.42-1.37,5.39,5.39,0,0,1,.79-1.29,4.28,4.28,0,0,1,1.18-1,3,3,0,0,1,1.23-.43,1.66,1.66,0,0,1,1,.2,1.9,1.9,0,0,1,.67.73,3.29,3.29,0,0,1,.36,1.16,5.79,5.79,0,0,1,.06.91,4.28,4.28,0,0,1-.09.87,5.69,5.69,0,0,1-.27.9,9.85,9.85,0,0,1-.44,1l-2.29,4.73,3.76-2.17a.23.23,0,0,1,.25,0,.27.27,0,0,1,.14.23l.08.54a.56.56,0,0,1-.06.35.53.53,0,0,1-.21.25l-5.3,3.06a.25.25,0,0,1-.25,0,.28.28,0,0,1-.14-.23l-.08-.55a.69.69,0,0,1,0-.32,2,2,0,0,1,.17-.41Z" style="fill:#455a64"></path><path d="M308.15,236.09a.23.23,0,0,1,.25,0,.31.31,0,0,1,.14.23l.08.55a1.6,1.6,0,0,1,0,.31c0,.11,0,.24-.05.37l-1.49,10.26a1.92,1.92,0,0,1-.09.32.58.58,0,0,1-.21.25l-.57.32a.2.2,0,0,1-.22,0,.29.29,0,0,1-.13-.21v-.07a.72.72,0,0,1,0-.13l1.5-10.28-4,2.33a.23.23,0,0,1-.25,0,.27.27,0,0,1-.14-.23l-.08-.54a.56.56,0,0,1,.06-.35.48.48,0,0,1,.21-.25Z" style="fill:#455a64"></path><path d="M299.48,197.36l.21-.18a1.74,1.74,0,0,1,.22-.15,3.22,3.22,0,0,1,1.32-.46,2,2,0,0,1,1.11.19,2.15,2.15,0,0,1,.84.78,3.22,3.22,0,0,1,.44,1.3,5.18,5.18,0,0,1,0,1.57,6.38,6.38,0,0,1-.5,1.55,6.11,6.11,0,0,1-.9,1.35,5,5,0,0,1-1.23,1,3.34,3.34,0,0,1-1.32.45,2,2,0,0,1-1.11-.19,2,2,0,0,1-.83-.78,3.08,3.08,0,0,1-.45-1.29,5.16,5.16,0,0,1,0-.87,7.53,7.53,0,0,1,.11-.83,7.19,7.19,0,0,1,.2-.8c.08-.27.16-.52.24-.76l1.65-5.36a2.26,2.26,0,0,0,.11-.26.52.52,0,0,1,.23-.26l.7-.4c.08,0,.14,0,.19,0a.26.26,0,0,1,.1.2.28.28,0,0,1,0,.13.29.29,0,0,1,0,.1Zm-1.06,4.48a2.05,2.05,0,0,0,.26.78,1.43,1.43,0,0,0,.51.5,1.23,1.23,0,0,0,.7.14,2.06,2.06,0,0,0,.87-.3,3.3,3.3,0,0,0,.82-.67,3.78,3.78,0,0,0,.85-1.83,2.77,2.77,0,0,0,0-1,2.05,2.05,0,0,0-.26-.78,1.43,1.43,0,0,0-.51-.5,1.23,1.23,0,0,0-.7-.14,2.06,2.06,0,0,0-.87.3,3.34,3.34,0,0,0-.82.67,4,4,0,0,0-.56.88,3.66,3.66,0,0,0-.29,1A3,3,0,0,0,298.42,201.84Z" style="fill:#455a64"></path><path d="M310.07,266.14l-.17.13-.16.1a3.49,3.49,0,0,1-1.18.42,1.89,1.89,0,0,1-1.93-.84,3.11,3.11,0,0,1-.49-1.38,4.82,4.82,0,0,1,0-1.56,6.63,6.63,0,0,1,.51-1.52,6.2,6.2,0,0,1,.88-1.32,4.66,4.66,0,0,1,1.15-.95,3.2,3.2,0,0,1,1.32-.47,1.83,1.83,0,0,1,1.08.19,2,2,0,0,1,.78.77,3.75,3.75,0,0,1,.42,1.3,4.44,4.44,0,0,1,0,.82c0,.3-.08.59-.14.89s-.14.6-.22.88-.16.55-.24.79l-1.65,5.36a2.26,2.26,0,0,0-.11.26.52.52,0,0,1-.23.26l-.7.4a.15.15,0,0,1-.19,0,.26.26,0,0,1-.1-.2.28.28,0,0,1,0-.13.17.17,0,0,1,0-.1Zm1.08-4.46a2.23,2.23,0,0,0-.27-.79,1.25,1.25,0,0,0-.49-.48,1.18,1.18,0,0,0-.68-.11,2.14,2.14,0,0,0-.8.28,3,3,0,0,0-.75.62,3.18,3.18,0,0,0-.54.81,3.25,3.25,0,0,0-.29.93,3.1,3.1,0,0,0,0,1,2.15,2.15,0,0,0,.27.8,1.22,1.22,0,0,0,.49.47,1.24,1.24,0,0,0,.67.12,2.1,2.1,0,0,0,.81-.29,3.29,3.29,0,0,0,.75-.61,3.42,3.42,0,0,0,.54-.82,3.29,3.29,0,0,0,.29-.92A3.15,3.15,0,0,0,311.15,261.68Z" style="fill:#455a64"></path><path d="M293,300.08a1.1,1.1,0,0,0,.86.73,2,2,0,0,0,1.31-.31,3.77,3.77,0,0,0,.75-.58,3.47,3.47,0,0,0,.56-.76,3.26,3.26,0,0,0,.32-.94,3.07,3.07,0,0,0,0-1.05,2,2,0,0,0-.29-.87,1.09,1.09,0,0,0-.51-.45,1.29,1.29,0,0,0-.68-.05,2.49,2.49,0,0,0-.78.31,2.63,2.63,0,0,0-.73.56,5.35,5.35,0,0,0-.42.53l-.28.46a.81.81,0,0,1-.3.31l-.63.37a.22.22,0,0,1-.21,0,.25.25,0,0,1-.11-.19l-.36-5.27a.74.74,0,0,1,.06-.35.6.6,0,0,1,.22-.25l4.34-2.51a.25.25,0,0,1,.25,0,.29.29,0,0,1,.14.23l.08.54a.72.72,0,0,1-.06.35.46.46,0,0,1-.22.25l-3.57,2.07.17,2.73a5.36,5.36,0,0,1,.54-.56,4.76,4.76,0,0,1,.89-.64,3.64,3.64,0,0,1,1.25-.45,1.86,1.86,0,0,1,1.92.86,3.25,3.25,0,0,1,.46,1.35,5,5,0,0,1,0,1.63,5.49,5.49,0,0,1-.51,1.51,5.74,5.74,0,0,1-.89,1.28,5,5,0,0,1-1.18.94,3.88,3.88,0,0,1-1.21.47,2.39,2.39,0,0,1-1.07,0,1.74,1.74,0,0,1-.81-.53,2.08,2.08,0,0,1-.44-1,.48.48,0,0,1,.05-.28.41.41,0,0,1,.17-.21l.57-.33a.28.28,0,0,1,.2,0A.28.28,0,0,1,293,300.08Z" style="fill:#455a64"></path><path d="M335.58,303.83a.25.25,0,0,1-.25,0,.27.27,0,0,1-.14-.23l-.3-2.09L331,303.75a.25.25,0,0,1-.26,0,.28.28,0,0,1-.13-.23l-.08-.54a.92.92,0,0,1,0-.28,1.15,1.15,0,0,1,.09-.34l3-8.51a1.76,1.76,0,0,1,.18-.39.75.75,0,0,1,.25-.25l.49-.28a.23.23,0,0,1,.25,0,.28.28,0,0,1,.14.23l.91,6.33,1.06-.61a.25.25,0,0,1,.25,0,.29.29,0,0,1,.14.23l.08.54a.72.72,0,0,1-.06.35.5.5,0,0,1-.22.25l-1.05.62.29,2.09a.59.59,0,0,1-.05.34.64.64,0,0,1-.22.26Zm-.89-3.67-.61-4.27L332,301.7Z" style="fill:#455a64"></path><path d="M183.56,397.13l-.11-.77L155.18,198.91l.31-.18,160.72-92.79.11.77,28.27,197.45-.3.17ZM156.32,199.46l28.06,196L343.46,303.6l-28.06-196Z" style="fill:#455a64"></path><rect x="276.04" y="136.58" width="1.05" height="199.11" transform="translate(-30.68 41.58) rotate(-8.15)" style="fill:#455a64"></rect><rect x="222.69" y="167.38" width="1.05" height="199.11" transform="translate(-35.58 34.33) rotate(-8.15)" style="fill:#455a64"></rect><rect x="152.78" y="218.16" width="184.81" height="1.05" transform="translate(-76.44 151.64) rotate(-29.96)" style="fill:#455a64"></rect><rect x="162.19" y="283.85" width="184.81" height="1.05" transform="translate(-108 165.14) rotate(-29.96)" style="fill:#455a64"></rect></g></g><g id="freepik--Drink--inject-159"><g id="freepik--Coffee--inject-159"><path d="M83.24,347.44c-14.54-5.36-37.74-5.37-51.8,0s-14.07,14,0,19.39,37.25,5.38,51.8,0S97.79,352.81,83.24,347.44Z" style="fill:#FFC100"></path><path d="M94.84,329.82l-74.62,0,5.61,87.93h.07c.35,3.2,3.52,7,9,9.79,12.75,6.53,32.81,6.58,44.76,0,5.6-3.07,9-6.58,9.36-9.78h.08Z" style="fill:#fafafa"></path><path d="M20.22,329.86l1.14,17.86a33.26,33.26,0,0,0,6.23,3.35c16.13,6.69,42.74,6.7,59.44,0,.72-.29,1.32-.61,2-.91a37.52,37.52,0,0,0,4.68-2.63l1.15-17.74Z" style="fill:#ebebeb"></path><path d="M15.51,325.62V309.55h8.69A38.77,38.77,0,0,1,28,307.44c16.69-8,43.3-8,59.44,0a33.88,33.88,0,0,1,3.66,2.1h8.45v16.07h0c0,5.23-4,10.47-12.1,14.47-16.13,8-42.74,8-59.44,0C19.68,336.09,15.51,330.86,15.51,325.62Z" style="fill:#37474f"></path><path d="M28,295.08c16.69-8,43.3-8,59.44,0S103.6,316,87.46,324,44.72,332,28,324,11.32,303.08,28,295.08Z" style="fill:#455a64"></path><path d="M23.22,305.68h0l2.68-13.25H47.22a73,73,0,0,1,21.23,0H89.17l2.71,13.25h0c1.34,4.81-1.85,9.86-9.64,13.56-13.3,6.32-35.23,6.33-49,0C25.14,315.54,21.84,310.5,23.22,305.68Z" style="fill:#37474f"></path><path d="M35.17,284c12.63-5.5,32.78-5.51,45,0s12.23,14.4,0,19.9-32.36,5.51-45,0S22.53,289.46,35.17,284Z" style="fill:#455a64"></path><path d="M30.08,293.92a4.26,4.26,0,0,0,1.4,1.89,19.41,19.41,0,0,0,5.18,3.13c5.58,2.4,13.3,3.81,21.17,3.81s15.46-1.4,20.82-3.81a17.26,17.26,0,0,0,5-3.16A4,4,0,0,0,85,293.87c0-.37-1.1-2.69-6.32-5s-13-3.79-20.83-3.78-15.59,1.39-21.16,3.82C31.41,291.15,30.1,293.45,30.08,293.92Z" style="fill:#37474f"></path><path d="M31.48,295.81a19.41,19.41,0,0,0,5.18,3.13c5.58,2.4,13.3,3.81,21.17,3.81s15.46-1.4,20.82-3.81a17.26,17.26,0,0,0,5-3.16,17.4,17.4,0,0,0-5-3.16c-5.36-2.41-13-3.79-20.82-3.78s-15.59,1.39-21.17,3.83A18.39,18.39,0,0,0,31.48,295.81Z" style="fill:#455a64"></path><g style="opacity:0.5"><path d="M44.14,296.14c-1.84-1.25-4.08-1.75-5-1.14s-.17,2.15,1.67,3.41,4.08,1.77,5,1.14S46,297.39,44.14,296.14Z"></path></g><path d="M23,389.37c0,3.31,3.31,6.62,9.93,9.15,13.25,5.05,35.1,5.06,48.8,0C88.57,396,92,392.73,92,389.42l2.14-32.27c0,3.51-3.64,7-10.92,9.69-14.55,5.35-37.74,5.34-51.8,0-7-2.68-10.55-6.19-10.55-9.7Z" style="fill:#FFC100"></path><g style="opacity:0.6000000000000001"><path d="M23,389.37c0,3.31,3.31,6.62,9.93,9.15,13.25,5.05,35.1,5.06,48.8,0C88.57,396,92,392.73,92,389.42l2.14-32.27c0,3.51-3.64,7-10.92,9.69-14.55,5.35-37.74,5.34-51.8,0-7-2.68-10.55-6.19-10.55-9.7Z" style="fill:#fff"></path></g><path d="M73.3,389.76c1.23-1.65,1.91-3.69,2.91-5.48a16.25,16.25,0,0,1,8.43-7.44,1.06,1.06,0,0,1,1.32.48c1.84,3.73.71,9-3.08,12.77s-8.94,4.92-12.67,3.17c-.21-.1-.27-.51-.1-.61A10.6,10.6,0,0,0,73.3,389.76Z" style="fill:#37474f"></path><path d="M82.62,375.82a17.94,17.94,0,0,0-5.32,3.28,16,16,0,0,0-3.85,5.27,15.6,15.6,0,0,1-4.84,6.42,1,1,0,0,1-1.46-.22c-2.48-3.75-1.5-9.51,2.59-13.6,3.88-3.88,9.26-5,13-3A1,1,0,0,1,82.62,375.82Z" style="fill:#37474f"></path></g></g><g id="freepik--Character--inject-159"><g id="freepik--character--inject-159"><path d="M278.59,286.06q-2.52,1.54-4.93,3.27c.48-1.08.94-2.16,1.38-3.26.74-1.84,1.76-4.05,1.29-6.09a2.46,2.46,0,0,0-4-1.47c-1.3,1-2.72,3.17-1.77,4.8.16.26.77.37.74-.06a4.47,4.47,0,0,1,1.79-3.72c.86-.67,1.59,0,1.74.89a5.88,5.88,0,0,1-.23,2.28A33,33,0,0,1,273,287q-1,2.25-2,4.47c-.33.69.5,1.5,1.15,1a67.42,67.42,0,0,1,7.27-5.06A.76.76,0,1,0,278.59,286.06Z" style="fill:#FFC100"></path><path d="M278.59,286.06q-2.52,1.54-4.93,3.27c.48-1.08.94-2.16,1.38-3.26.74-1.84,1.76-4.05,1.29-6.09a2.46,2.46,0,0,0-4-1.47c-1.3,1-2.72,3.17-1.77,4.8.16.26.77.37.74-.06a4.47,4.47,0,0,1,1.79-3.72c.86-.67,1.59,0,1.74.89a5.88,5.88,0,0,1-.23,2.28A33,33,0,0,1,273,287q-1,2.25-2,4.47c-.33.69.5,1.5,1.15,1a67.42,67.42,0,0,1,7.27-5.06A.76.76,0,1,0,278.59,286.06Z" style="opacity:0.2"></path><g id="freepik--character--inject-159"><g id="freepik--Pencil--inject-159"><path d="M309.59,265.77l-29.24,13.82a1,1,0,0,1-1.31-1.35l14.74-29Z" style="fill:#ffa8a7"></path><polygon points="299.53 261.71 280.35 279.59 309.59 265.77 302.72 258.61 299.53 261.71" style="fill:#f28f8f"></polygon><path d="M279,278.24a1,1,0,0,0,1.31,1.35l5.71-2.7h0a5.53,5.53,0,0,1-3.77-4.29l-.1-.55Z" style="fill:#FFC100"></path><path d="M431.94,115.23l-2.14,2.08-2.6,2.5L293.78,249.29a14.54,14.54,0,0,0,3.52,10c3.46,4.34,8.71,7.13,12.28,6.47L443,136.34l4.94-4.8C444.51,134.47,428.6,118.21,431.94,115.23Z" style="fill:#FFC100"></path><path d="M431.94,115.23l-2.14,2.08-2.6,2.5L293.78,249.29a14.54,14.54,0,0,0,3.52,10c3.46,4.34,8.71,7.13,12.28,6.47L443,136.34l4.94-4.8C444.51,134.47,428.6,118.21,431.94,115.23Z" style="fill:#fff;opacity:0.30000000000000004"></path><path d="M423.75,123.13,419,127.79c-1.43,1.3.58,5.14,3.63,8.87,4,5,10.5,9.12,12.4,7.4l3.53-3.43,1.24-1.25c-1.9,1.73-8.38-2.43-12.41-7.39-2.91-3.58-4.87-7.28-3.74-8.7v0A.41.41,0,0,1,423.75,123.13Z" style="fill:#ebebeb"></path><path d="M422.57,124.3c-3.33,3,12.69,19.28,16,16.26l4.8-4.65c-3.33,3-19.35-13.23-16-16.26Z" style="fill:#FFC100"></path><path d="M431.94,115.23l-4.74,4.58c-3.29,3,12,18.76,15.75,16.53a1.15,1.15,0,0,0,.2-.15l4.74-4.65C444.51,134.47,428.6,118.21,431.94,115.23Z" style="fill:#ebebeb"></path><path d="M447.54,131.75h0c-1.78.76-5.76-1.43-9.24-4.74L299.56,261.68c3.23,2.92,7.16,4.61,10,4.08L442.94,136.34l4.95-4.8A1.36,1.36,0,0,1,447.54,131.75Z" style="fill:#FFC100;opacity:0.5"></path><path d="M468.38,111.65l.18-.14c2.07-2,.18-7.32-4.23-11.82s-9.65-6.5-11.73-4.49h0l-20.65,20c-1.43,1.28.54,5.09,3.54,8.81,4,5,10.48,9.19,12.41,7.5,0,0,0,0,0,0L468.08,112a3.57,3.57,0,0,0,.27-.28Z" style="fill:#f28f8f"></path><path d="M465.25,100.69l-27,26.33c3.74,3.5,8.09,5.84,9.61,4.51,0,0,0,0,0,0L468.08,112a3.57,3.57,0,0,0,.27-.28l0,0,.18-.14C470.48,109.63,469,104.94,465.25,100.69Z" style="opacity:0.1"></path><path d="M468.56,111.51c-2.08,2-7.33,0-11.74-4.48s-6.31-9.79-4.24-11.82,7.34,0,11.75,4.48S470.63,109.48,468.56,111.51Z" style="fill:#ffa8a7"></path></g><g id="freepik--Bottom--inject-159"><path d="M330.51,410.23c-.75-.08-.76,1.74-.3,2.61,1.33,2.5,5,5.2,10.4,6.39s15.95-.23,19.15-.35,8.71,1.5,11.9,2c5.8.94,9.78-.67,11.68-2.53a3.61,3.61,0,0,0,.79-2.74c-.05-2.21-.25-2.66-.49-2.64Z" style="fill:#37474f"></path><path d="M383,406.55a27.63,27.63,0,0,1,.51,8c-.67,1.64-2.47,2.57-3.91,3-3.79,1.19-7.51,1-11.69.07a30.53,30.53,0,0,0-8.24-.94c-3.3.18-10.58.92-13.89,1a22.32,22.32,0,0,1-9-1.74c-2.19-1-5.51-3.26-6.24-5-.72-4-.32-6.32,2-7.67s5.86-1.7,10.63-2.06c1.43-.1,3.23-.19,4-.27,2.89-.32,5.59-.53,7.78-.67a12.5,12.5,0,0,0,5.39-1.18,3.68,3.68,0,0,0,1.78-1.72c.46-1,.44-2.5,1.33-2.58,0,0,16.33,2.77,17.65,2.91C382.58,397.83,381.59,400,383,406.55Z" style="fill:#455a64"></path><path d="M345.87,400.77a4.29,4.29,0,0,0-1.2,1.43,7.68,7.68,0,0,0-.75,1.89c-.22.84.81,1,1.21,0a10.22,10.22,0,0,1,1.17-2.26,2.53,2.53,0,0,1,1.42-1l.82-.09C348.32,400.15,346.5,400.35,345.87,400.77Z" style="fill:#fafafa"></path><path d="M353.24,399.91a2,2,0,0,0-1.54.47,3.8,3.8,0,0,0-1.15,1.72,15.15,15.15,0,0,0-.66,2.46c-.06.54,1.2.52,1.34-.06a20.74,20.74,0,0,1,.64-2.25c.14-.37.8-1.77,1.66-1.91l.4,0c0-.18-.25-.31-.42-.35Z" style="fill:#fafafa"></path><path d="M357.56,399.78a1.68,1.68,0,0,0-1,.56,4.4,4.4,0,0,0-.67,1.29,8.38,8.38,0,0,0-.38,2.64c0,.69,1.23.51,1.28.05a6.75,6.75,0,0,1,.82-3.47,3.31,3.31,0,0,1,1.08-1.14c0-.12-.22-.14-.34-.12A7.68,7.68,0,0,0,357.56,399.78Z" style="fill:#fafafa"></path><path d="M382.71,380.09s-1.41,15-1.77,18.49c-.11,1.11-2.21,1.55-3.29,2a13,13,0,0,0-3.71,2.14c-2.74,2.72-4.81,3.36-6.46-1.42a1.69,1.69,0,0,0-2.22-1.17,7.52,7.52,0,0,1-2.84.4c-.14-.09-.06-.32,0-.46a4.71,4.71,0,0,0,1-3.77c-.48-6.14-.73-12.31-1.08-18.46Z" style="fill:#ffa8a7"></path><path d="M444.5,368c-1.94-3.11-5-11.46-7.45-20.31l-18.42,8.54s11.27,20.46,12.56,22.31C433.3,381.61,444.5,368,444.5,368Z" style="fill:#ffa8a7"></path><path d="M450.57,374.65c0-.18.07-1.64,0-1.82-.41-1.57-1.38-2-2.63-2.89A19.79,19.79,0,0,1,444.5,367c-.41-.58-.5-.88-1.15-1.15-1.1-.45-2.88-.48-5.08.67-3.59,1.89-4.69,4.16-4.48,6.62.16,1.88.31,4.38-1.34,5.5-.69.46-2.34-1.84-2.34-1.84-1,1.71,1,3.38,1.72,6.85a14.31,14.31,0,0,1,.1,5.83c-.36,3-.78,3-2.4,3.25-1.39.18-5.34-.09-7.74,1.59-3.31,2.31-2.43,5.39-2.43,5.39.43,1.17,4,6.85,17.18,4.73,3.82-.62,11.83-6.62,11.71-7.18a7.62,7.62,0,0,1,0-1.72c.05-1.35.11-2.69.16-4a20.54,20.54,0,0,1,.23-3.85,20.91,20.91,0,0,0,.49-3.17l.75-8.11C450,375.6,450.67,375.42,450.57,374.65Z" style="fill:#455a64"></path><path d="M452.22,374.12c1.3,1.25.51,4.9-1.23,9.27-.77,1.94-2.21,5.28-1.78,8.82s.49,5.23-.42,6.89c-1.43,2.6-9.08,5.93-13.59,7a24.82,24.82,0,0,0,4.58-13c.46-7.83,1.06-12.88,4.64-16.36C449,372.31,452.22,374.12,452.22,374.12Z"></path><path d="M419.36,399.7s2.64,4.94,12.81,4.78c4-.06,6.16-2,6.25-8.1.12-7.34.71-14.75,3.09-18.4s6.15-5.41,9.08-5.15a2.79,2.79,0,0,1,1.63,1.29s-2.93-1-7.5,2.82c-3.37,2.8-4.28,8.64-4.23,15.9,0,3.12.21,6.67-.7,9a7.22,7.22,0,0,1-4.86,4.28c-5.53,1.55-13.11-1-15-3.35A3.62,3.62,0,0,1,419.36,399.7Z" style="fill:#37474f"></path><path d="M431.59,391.38a2.11,2.11,0,0,0-.83,1.22,3.47,3.47,0,0,0,1.61,3.18c.61.39,1.14.25.17-1A6.41,6.41,0,0,1,431.59,391.38Z" style="fill:#fafafa"></path><path d="M432.13,387.58s-.32.21-.4,1.23a5,5,0,0,0,1.88,3.28c1.07.52.49-.71,0-1.32A8.06,8.06,0,0,1,432.13,387.58Z" style="fill:#fafafa"></path><path d="M431.77,383.39s-.35.09,0,1.5a4.43,4.43,0,0,0,2.21,1.94c.69.09,1-.26.18-.87C433.52,385.48,431.9,384.07,431.77,383.39Z" style="fill:#fafafa"></path><path d="M423.66,366s-9.05-15.75-22.64-39.66a32,32,0,0,1-4.27-10.95c-.92-4-5.65-24.06-5.65-24.06l-5,32.63a72.2,72.2,0,0,1,1.79,12.88c0,5.39-.68,13.57-2.2,24.67-2.33,17-3.42,26-3.42,26-1.2.86-2.67,2.07-11,1.95a21.93,21.93,0,0,1-8.53-2.37s-1.47-17.65-2.08-30c-.57-11.36-1.5-24.2-2-31.05-.91-12.88-1.2-18.42-1.33-38.71-.14-21,1.47-52,1.47-52h59.84s4.39,7.39,3.19,25.5c.46,17.7,1.4,50.05,1.4,50.05,4,4.65,6.84,10.33,9.61,20.41,3.07,11.21,4.94,17.72,7.38,25.9C435.36,357.15,425.43,362.63,423.66,366Z" style="fill:#37474f"></path><path d="M428.45,361.69l-.86.57c-5-8.54-17.51-30.17-21.55-38.12-4.14-8.15-7.1-20.54-11-38.61-.53-2.41-1.07-4.92-1.64-7.54l-.25-1.14.42-3,.84,3.88c.35,1.65.7,3.24,1,4.81,4.23,19.49,7.27,32.65,11.56,41.1C411,331.58,423.45,353.11,428.45,361.69Z" style="fill:#263238"></path><path d="M365.65,235.4h-1c-.64,9-1,20.13-1.07,32.67-2.11-1-4.36-3.15-5.82-7.51,0,.84-.05,1.7-.08,2.55a11.54,11.54,0,0,0,5.89,6.08c-.22,35.63,1.49,81.93,3.93,119.72.35.09.7.17,1.06.24C365.17,337.53,363.18,269.89,365.65,235.4Z" style="fill:#263238"></path><path d="M391.05,291.49l3.3-23.39s7.74-.59,17-8.34c0,0-1.22,6.93-14.42,11.67l-3.16,22.62,2.43,19.15S391.11,291.93,391.05,291.49Z" style="opacity:0.2"></path></g><g id="freepik--Top--inject-159"><path d="M431.45,184.36a187.59,187.59,0,0,0-11.92-19.69c-4.91-7.18-18.67-4.54-18.69-4.54l6.56,19.76,10.3,20.76-12.85,15.82L416,226.77s15.17-15.05,19.22-19.41c4.23-4.57,3.75-6.68,2-11.06C435.94,193,435,191.34,431.45,184.36Z" style="fill:#ffa8a7"></path><path d="M428.21,195.9c1.63-1.07,5-4.32,6-6.78-4.74-10.14-12.55-23.3-14.71-25.84-2.55-3-5.72-4.88-14.06-4.87l1.23,21.3,10.42,20.17C420.47,199.79,424.92,198.06,428.21,195.9Z" style="fill:#263238"></path><path d="M400.71,160c-.74-4.54-.88-7.69-.21-10.85.8-3.71,5.6-11.24,6.17-20s-11.17-22.12-21.29-21.07-15.51,6.65-18.24,14.22c-1.66,4.61,0,5.51-.6,8.16-1.26,5.23-3.14,9.26-.7,19.25.88,3.64,4,5.05,6.88,5.76a20.76,20.76,0,0,0,6.55.21,66.11,66.11,0,0,1,.05,6.78,3.11,3.11,0,0,1-2.93,3S401.15,162.74,400.71,160Z" style="fill:#ffa8a7"></path><path d="M373.38,144.34a3.12,3.12,0,0,0,6-1.72Z" style="fill:#b16668"></path><path d="M375.72,146.51a4.41,4.41,0,0,1,3.75-2.84,3.09,3.09,0,0,1-2.23,2.8A3.14,3.14,0,0,1,375.72,146.51Z" style="fill:#f28f8f"></path><path d="M379.85,132.44a1.62,1.62,0,1,0,2-1.12A1.64,1.64,0,0,0,379.85,132.44Z" style="fill:#263238"></path><path d="M380,126.4l3.69,1.41a2.07,2.07,0,0,0-1.18-2.62A1.93,1.93,0,0,0,380,126.4Z" style="fill:#263238"></path><path d="M367.45,127.82l3.71-1.45a1.92,1.92,0,0,0-2.52-1.18A2.11,2.11,0,0,0,367.45,127.82Z" style="fill:#263238"></path><path d="M368.69,131.67a1.5,1.5,0,0,0,1.49,1.53,1.55,1.55,0,1,0-1.49-1.53Z" style="fill:#263238"></path><path d="M367.17,138.94l5.77,2.58,1.82-11.33C372.62,129.42,369.84,134.62,367.17,138.94Z" style="fill:#f28f8f"></path><path d="M379.27,155.73s5.47-.82,7-1.7c4.21-2.4,5.74-4.26,6.68-6.89a11.23,11.23,0,0,1-6.19,8.38,37.84,37.84,0,0,1-7.39,2.25Z" style="fill:#f28f8f"></path><path d="M394.41,142.21c-.07,1.62.24,4.38,1.9,5.58s2.63,1.81,4.19,1.38c.53-1.46,2.18-5.23,3.77-8.43s8.69-15.24,1.9-19.82c1.49-4.9-.86-9.83-5.16-12.85-3.61-2.54-12.08-2.67-17.8-1.76-13.53,2.13-15.67-1.59-17.59-.65s-1,5.62.5,7c-2.11-.44-3.13,1.81-2,4.43s4.08,4.34,8.9,5.09a29.18,29.18,0,0,0,16.93-2.76,27.21,27.21,0,0,0-1.85,5.88,6.16,6.16,0,0,0,1.52,5c1,1-.44,3.59-.22,4.68s1.55,3.25,3.56-.92,6.36-4.27,8.12-2.19,1.7,4.24,0,8C399.7,142.85,396.32,144,394.41,142.21Z" style="fill:#263238"></path><path d="M413.88,159.66c5.27,2.23,8.18,10.06,7.48,20.53-.65,9.69-1.25,15.7-2.52,25.92a94.58,94.58,0,0,0-.16,19c1,9.19,2,15.36,2,15.36s-6,8.89-24.37,10.51c-22.14,2-38.27-5-38.27-5s.07-6.45.12-14.52c.06-8.85.95-16.79,1.2-24,.57-16.45.05-29.4,2-35.27,1.41-3.24,2.53-4.71,6.23-6.08,1.35-.5,7.23-2.25,11.23-3.15,4.9-1.1,22.2-4.52,24.42-4.52S410.1,158.05,413.88,159.66Z" style="fill:#f5f5f5"></path><path d="M406,159.36h0a19.82,19.82,0,0,1,7.55,1.2c4.92,2.08,7.55,9.58,6.88,19.57-.62,9.31-1.21,15.36-2.51,25.86a95.27,95.27,0,0,0-.17,19.21c.86,7.76,1.74,13.45,2,15-1.23,1.51-7.64,8.4-23.42,9.8-2.57.22-5.19.34-7.78.34a85.08,85.08,0,0,1-29.43-5.07c0-1.85.07-7.32.12-13.86,0-5.3.37-10.22.69-15,.21-3.13.41-6.09.51-9,.16-4.77.24-9.33.31-13.35.16-9.81.29-17.57,1.58-21.61,1.35-3.1,2.31-4.27,5.65-5.51,1.27-.47,7.14-2.21,11.1-3.1,5.16-1.16,22.17-4.5,24.22-4.5l1.05,0,1.66,0m0-1c-1.08,0-2,0-2.72,0-2.22,0-19.52,3.42-24.42,4.52-4,.9-9.88,2.65-11.23,3.15-3.7,1.37-4.82,2.84-6.23,6.08-1.9,5.87-1.38,18.82-2,35.27-.25,7.17-1.14,15.11-1.2,24-.05,8.07-.12,14.52-.12,14.52s12.41,5.39,30.41,5.39c2.52,0,5.15-.11,7.86-.35,18.33-1.62,24.37-10.51,24.37-10.51s-1-6.17-2-15.36a94.58,94.58,0,0,1,.16-19c1.27-10.22,1.87-16.23,2.52-25.92.7-10.47-2.21-18.3-7.48-20.53a20.7,20.7,0,0,0-7.93-1.28Z" style="fill:#e0e0e0"></path><path d="M367,166.79s-6.08,1.73-8.51,4.54-5.21,9-7.88,16.56-9.33,24.32-9.33,24.32-8.15,3.27-14.34,5.46c-4,1.41-5.84,2.29-9,3.38s-9.17,1-10.72,1.44c-3,.76-2.08,2.91-4,3.75s-1.31,2.3-2.37,4c-.76,1.23-1-.07-2.13,3s.78,10.47.78,10.47l3.36-3.26a25,25,0,0,0,3.73-.43c3-.54,3.65-2.62,8.49-4.14,4.85-1.14,22.06-3.05,30.25-4.9s10.54-2.35,12.53-6.54S370,195.06,370,195.06C379.07,174.48,367,166.79,367,166.79Z" style="fill:#ffa8a7"></path><path d="M367,166.31c-6.78,2-10.51,4-14.77,15.61-2.3,6.23-5.12,13.78-7.24,19.93.48,2.12,3.31,5.81,7.86,8.41,5.56,3.18,9.17,2.25,10.63,2.05,3.7-9.05,7.78-19.23,7.78-19.23S378.91,175.47,367,166.31Z" style="fill:#263238"></path></g></g></g></g><g id="freepik--speech-bubble--inject-159"><g id="freepik--speech-bubble--inject-159"><path d="M388,60.3c0-15.32,17.34-27.75,38.72-27.75S465.47,45,465.47,60.3,448.13,88,426.74,88c-1.28,0-2.56-.05-3.81-.14-4.23,7.95-11.42,9.32-17,8.69a10.5,10.5,0,0,0,6-10.67C397.88,81.75,388,71.85,388,60.3Z" style="fill:#fff"></path><path d="M405.87,97a.41.41,0,0,1-.12-.77,10.09,10.09,0,0,0,5.76-10C397,81.82,387.62,71.66,387.62,60.3c0-15.52,17.55-28.15,39.12-28.15s39.13,12.63,39.13,28.15-17.55,28.14-39.13,28.14c-1.17,0-2.37,0-3.58-.11a16.17,16.17,0,0,1-14.89,8.79A21.58,21.58,0,0,1,405.87,97ZM423,87.5c1.27.09,2.55.14,3.78.14,21.13,0,38.32-12.27,38.32-27.34S447.87,33,426.74,33,388.42,45.22,388.42,60.3c0,11.06,9.26,21,23.59,25.24a.39.39,0,0,1,.28.34,11,11,0,0,1-5,10.41c4.43.21,11.19-.92,15.26-8.57a.4.4,0,0,1,.36-.22Z" style="fill:#FFC100"></path><path d="M399.77,68.13l-.21-.82,2.88-1.53.29,0,2.4,6.93,1.61-.37.2.75L402.26,75l-.19-.74,1.53-.86-2.06-5.94Z" style="fill:#455a64"></path><path d="M430.33,42.68c1.69.85,2.21,2.18,1.54,3.53-.95,1.89-3.08,2.26-5.1,2.43l-1,.08,0,.07,2,1c1.18.59,1.56.48,2.56-.57l.69.35-1.55,2.32L423.56,49l.37-.72c.75-.06,2.07-.27,2.89-.42a4.9,4.9,0,0,0,3.74-2.23,1.6,1.6,0,0,0-.73-2.28c-1.13-.56-1.95-.22-1.73.62l.13.47a1,1,0,0,1-1.13.15.86.86,0,0,1-.42-1.25C427.3,42.07,429.12,42.07,430.33,42.68Z" style="fill:#455a64"></path><path d="M421.07,70.43l0,.19c2.24.76,3.59,2,3,4.56s-3.57,5.26-8.42,4.21c-1.78-.39-4-1.44-3.56-3.53a1.72,1.72,0,0,1,2.12-1.4,1.88,1.88,0,0,1,1.32,1.13l-.59.66c-.73.74-.25,1.49,1.08,1.78,2.66.58,4.45-1,5-3.47.49-2.23-.84-3.09-2.36-3.42a9.08,9.08,0,0,0-1.65-.21l.09-1.3c3.48.34,5-1.33,5.35-3.14.36-1.66-.49-2.79-2.24-3.17s-2.74.33-2.05,1.55l.37.67a1.92,1.92,0,0,1-2,.77,1.45,1.45,0,0,1-1.16-1.87c.47-2.16,3.28-2.87,5.7-2.34,2.73.59,4.72,2.19,4.15,4.83A4.66,4.66,0,0,1,421.07,70.43Z" style="fill:#455a64"></path><path d="M434.8,74l4,3.19,3.8-4.38,1.25.42.14.31-4,4.61,1.3,1-.85.88-1.23-1-2,2.29-1.21-1,2-2.29L432.91,74l.44-.8c4.37-.1,6.3-1.23,7.34-2.53a.76.76,0,0,0,0-1.14l-.4-.53a1.29,1.29,0,0,1,2.05-.45,1.54,1.54,0,0,1,.1,2.33C441.15,72.51,438.91,73.8,434.8,74Z" style="fill:#455a64"></path><path d="M433.76,61.23a5.16,5.16,0,0,0-1.67,1.18l-.8-.38-1.45-4.58.24-.37a17.32,17.32,0,0,0,2.53-.72c1.11-.46,1.55-.86,1.45-2l.77-.2c.5,1.85.43,2.93-.84,3.45a8.37,8.37,0,0,1-2.83.43l.94,3.18a4.71,4.71,0,0,1,1.9-1.49,3,3,0,0,1,4.1,1.83c.89,2.15.15,4.77-2.77,6-1.1.45-2.72.71-3.26-.59a1.14,1.14,0,0,1,.64-1.54,1.32,1.32,0,0,1,1.12.12l-.07.5c-.12.76.41,1,1.26.64,1.66-.69,2.09-2.35,1.34-4.18C435.74,61,434.84,60.79,433.76,61.23Z" style="fill:#455a64"></path><path d="M453.91,56.42c1.59,0,3,.76,3,2.26A1.26,1.26,0,0,1,455.61,60a2.19,2.19,0,0,1-1.34-.52l.37-.71c.34-.67,0-1.17-.9-1.17-2.32,0-3.64,2.68-3.95,5.69l.08.06a4.91,4.91,0,0,1,3.66-1.94c1.87,0,3.23,1.19,3.23,3.74,0,3.14-2,5.23-4.73,5.23-3.33,0-4.38-2.78-4.38-5.58C447.65,60.25,449.85,56.42,453.91,56.42Zm.61,9c0-2-.67-2.63-1.59-2.63-1.3,0-2.58,1.36-3.1,2.07-.06,2,.44,4.37,2.24,4.37C453.66,69.21,454.52,67.81,454.52,65.4Z" style="fill:#455a64"></path><path d="M419.6,40.9h-8.22l.3-1.82h9.78l.19,1.47c-3.55,3.75-7.48,8.21-7.48,11.92,0,1.13.78,1.56,1.56,1.13l1-.58a1.8,1.8,0,0,1,.65,1.47c-.07.74-.74,1.36-2,1.36a2.85,2.85,0,0,1-2.78-3.15C412.63,49.11,415.39,45.29,419.6,40.9Z" style="fill:#455a64"></path><path d="M441.1,47.21a3.53,3.53,0,0,1-3.73-.33c-1.48-1.15-1.95-3.31-.12-5.68,1.54-2,3.33-2.16,4.64-1.14,1.13.88,1.3,2.38,1.05,4,2.39-1.15,3.52-.93,4.71,0,2.15,1.67,1.83,4.41.28,6.41s-3.83,2.66-5.49,1.36C441.18,50.82,440.72,49.46,441.1,47.21ZM443.5,50a2.31,2.31,0,0,0,3.55-.37,2.37,2.37,0,0,0-.5-3.58c-1.16-.9-2.27-.46-4.34.7A3.39,3.39,0,0,0,443.5,50Zm-1.66-5.35a3.08,3.08,0,0,0-1-3,1.82,1.82,0,0,0-2.76.4,2,2,0,0,0,.19,3C439.16,45.67,440.08,45.5,441.84,44.6Z" style="fill:#455a64"></path><path d="M403.7,60.73c-1.29.62-2.62.59-3.16-.55a1.12,1.12,0,0,1,.55-1.54,1.61,1.61,0,0,1,1.09-.07l-.05.65c0,.68.48.94,1.29.56,2.17-1,1.92-4,.9-6.67l-.08,0A4.9,4.9,0,0,1,402,56.24c-1.47.69-3.05.26-4-1.82-1.2-2.53-.4-5,1.71-6,2.57-1.21,4.4.63,5.48,2.91C406.9,55.08,407.17,59.09,403.7,60.73Zm-4.39-7.2c.77,1.64,1.69,1.93,2.52,1.54,1.17-.56,1.73-2.33,1.87-3.1-.73-1.64-2.18-3.33-3.66-2.63S398.43,51.69,399.31,53.53Z" style="fill:#455a64"></path></g></g></svg>
